<?xml version="1.0" encoding="UTF-8" standalone="no"?>
<svg
   width="600mm"
   height="300mm"
   viewBox="0 0 599.99998 299.99999"
   version="1.1"
   preserveAspectRatio="xMidYMid"
   id="svg1"
   sodipodi:docname="lamp.svg"
   inkscape:version="1.3 (0e150ed6c4, 2023-07-21)"
   xmlns:inkscape="http://www.inkscape.org/namespaces/inkscape"
   xmlns:sodipodi="http://sodipodi.sourceforge.net/DTD/sodipodi-0.dtd"
   xmlns="http://www.w3.org/2000/svg"
   xmlns:svg="http://www.w3.org/2000/svg">
  <defs
     id="defs1" />
  <sodipodi:namedview
     id="namedview1"
     pagecolor="#ffffff"
     bordercolor="#000000"
     borderopacity="0.25"
     inkscape:showpageshadow="2"
     inkscape:pageopacity="0.0"
     inkscape:pagecheckerboard="0"
     inkscape:deskcolor="#d1d1d1"
     inkscape:document-units="mm"
     inkscape:zoom="0.41013358"
     inkscape:cx="804.61589"
     inkscape:cy="583.95608"
     inkscape:window-width="1920"
     inkscape:window-height="1001"
     inkscape:window-x="-9"
     inkscape:window-y="-9"
     inkscape:window-maximized="1"
     inkscape:current-layer="svg1" />
  <path
     d="m 256.91404,289.40188 h 5.995 v 3 h 5.994 v -3 h 5.995 v 3 h 5.994 v -3 h 5.994 v 3 h 5.995 v -3 h 5.994 v 3 h 5.995 v -3 h 5.994 v 3 h 5.994 v -3 h 5.995 v 3 h 5.994 v -3 h 5.995 v 3 h 5.994 v -3 h 5.994 v 3 h 11.042 v -11.532 h -3 v -5.994 h 3 v -5.995 h -3 v -5.994 h 3 v -5.994 h -3 v -5.995 h 3 v -5.994 h -3 v -5.995 h 3 v -5.994 h -3 v -5.994 h 3 v -5.995 h -3 v -5.994 h 3 v -11.532 h -36.833 v 43 h -3 v -43 h -32.334 v 43 h -2.999 v -43 h -36.833 v 11.532 h 3 v 5.994 h -3 v 5.995 h 3 v 5.994 h -3 v 5.994 h 3 v 5.995 h -3 v 5.994 h 3 v 5.995 h -3 v 5.994 h 3 v 5.994 h -3 v 5.995 h 3 v 5.994 h -3 v 11.532 h 11.041 z"
     id="Front_outsideCutPath"
     stroke="#FF0000"
     stroke-width="0.1"
     style="font-size:12px;fill:none;fill-rule:evenodd;stroke:#ff0000;stroke-width:0.1;stroke-linecap:round;stroke-dasharray:none"
     vector-effect="non-scaling-stroke" />
  <path
     d="m 392.01035,290.84538 h 5.995 v 3 h 5.994 v -3 h 5.995 v 3 h 5.994 v -3 h 5.994 v 3 h 5.995 v -3 h 5.994 v 3 h 5.995 v -3 h 5.994 v 3 h 5.994 v -3 h 5.995 v 3 h 5.994 v -3 h 8.037 v -8.532 h 3 v -5.994 h -3 v -5.995 h 3 v -5.994 h -3 v -5.994 h 3 v -5.995 h -3 v -5.994 h 3 v -5.995 h -3 v -5.994 h 3 v -5.994 h -3 v -5.995 h 3 v -5.994 h -3 v -11.532 h -29.832 v 43 h -3.003 v -43 h -28.331 v 43 h -3.002 v -43 h -29.833 v 11.532 h -2.999 v 5.994 h 2.999 v 5.995 h -2.999 v 5.994 h 2.999 v 5.994 h -2.999 v 5.995 h 2.999 v 5.994 h -2.999 v 5.995 h 2.999 v 5.994 h -2.999 v 5.994 h 2.999 v 5.995 h -2.999 v 5.994 h 2.999 v 8.532 h 8.037 v 3 h 5.994 z"
     id="Left_outsideCutPath"
     stroke="#FF0000"
     stroke-width="0.1"
     style="font-size:12px;fill:none;fill-rule:evenodd;stroke:#ff0000;stroke-width:0.1;stroke-linecap:round;stroke-dasharray:none"
     vector-effect="non-scaling-stroke" />
  <path
     d="m 583.45316,293.84538 v -3 h 11.041 v -8.036 h -2.999 v -5.995 h 2.999 v -5.994 h -2.999 v -5.995 h 2.999 v -5.994 h -2.999 v -5.994 h 2.999 v -5.995 h -2.999 v -5.994 h 2.999 v -5.995 h -2.999 v -5.994 h 2.999 v -5.994 h -2.999 v -5.995 h 2.999 v -5.994 h -2.999 v -5.995 h 2.999 v -8.036 h -11.041 v -3 h -5.994 v 3 h -5.995 v -3 h -5.994 v 3 h -5.995 v -3 h -5.994 v 3 h -5.994 v -3 h -5.995 v 3 h -5.994 v -3 h -5.995 v 3 h -5.994 v -3 h -5.994 v 3 h -5.995 v -3 h -5.994 v 3 h -5.995 v -3 h -5.994 v 3 h -11.041 v 8.036 h 2.999 v 5.995 h -2.999 v 5.994 h 2.999 v 5.995 h -2.999 v 5.994 h 2.999 v 5.994 h -2.999 v 5.995 h 2.999 v 5.994 h -2.999 v 5.995 h 2.999 v 5.994 h -2.999 v 5.994 h 2.999 v 5.995 h -2.999 v 5.994 h 2.999 v 5.995 h -2.999 v 8.036 h 11.041 v 3 h 5.994 v -3 h 5.995 v 3 h 5.994 v -3 h 5.995 v 3 h 5.994 v -3 h 5.994 v 3 h 5.995 v -3 h 5.994 v 3 h 5.995 v -3 h 5.994 v 3 h 5.994 v -3 h 5.995 v 3 h 5.994 v -3 h 5.995 v 3 z"
     id="Bottom_outsideCutPath"
     stroke="#FF0000"
     stroke-width="0.1"
     style="font-size:12px;fill:none;fill-rule:evenodd;stroke:#ff0000;stroke-width:0.1;stroke-linecap:round;stroke-dasharray:none"
     vector-effect="non-scaling-stroke" />
  <path
     d="m 21.5328,284.9846 h 5.995 v 2.999 h 5.994 v -2.999 h 5.995 v 2.999 h 5.994 v -2.999 h 5.994 v 2.999 h 5.995 v -2.999 h 5.994 v 2.999 h 5.995 v -2.999 h 5.994 v 2.999 h 5.994 v -2.999 h 5.995 v 2.999 h 5.994 v -2.999 h 5.995 v 2.999 h 5.994 v -2.999 h 5.994 v 2.999 h 11.042 v -11.531 h -3 v -5.995 h 3 v -5.994 h -3 v -5.995 h 3 v -5.994 h -3 v -5.994 h 3 v -5.995 h -3 v -5.994 h 3 v -5.995 h -3 v -5.994 h 3 v -5.994 h -3 v -5.995 h 3 v -11.531 h -36.833 v 42.999 h -3 v -42.999 h -32.334 v 42.999 h -2.999 v -42.999 h -36.833 v 11.531 h 3 v 5.995 h -3 v 5.994 h 3 v 5.994 h -3 v 5.995 h 3 v 5.994 h -3 v 5.995 h 3 v 5.994 h -3 v 5.994 h 3 v 5.995 h -3 v 5.994 h 3 v 5.995 h -3 v 11.531 h 11.041 z"
     id="Back_outsideCutPath"
     stroke="#FF0000"
     stroke-width="0.1"
     style="font-size:12px;fill:none;fill-rule:evenodd;stroke:#ff0000;stroke-width:0.1;stroke-linecap:round;stroke-dasharray:none"
     vector-effect="non-scaling-stroke" />
  <path
     d="m 152.55643,284.07227 h 5.995 v 2.999 h 5.994 v -2.999 h 5.995 v 2.999 h 5.994 v -2.999 h 5.994 v 2.999 h 5.995 v -2.999 h 5.994 v 2.999 h 5.995 v -2.999 h 5.994 v 2.999 h 5.994 v -2.999 h 5.995 v 2.999 h 5.994 v -2.999 h 8.037 v -8.532 h 3 v -5.995 h -3 v -5.994 h 3 v -5.995 h -3 v -5.994 h 3 v -5.994 h -3 v -5.995 h 3 v -5.994 h -3 v -5.995 h 3 v -5.994 h -3 v -5.994 h 3 v -5.995 h -3 v -11.531 h -29.832 v 42.999 h -3.003 v -42.999 h -28.331 v 42.999 h -3.002 v -42.999 h -29.833 v 11.531 h -2.999 v 5.995 h 2.999 v 5.994 h -2.999 v 5.994 h 2.999 v 5.995 h -2.999 v 5.994 h 2.999 v 5.995 h -2.999 v 5.994 h 2.999 v 5.994 h -2.999 v 5.995 h 2.999 v 5.994 h -2.999 v 5.995 h 2.999 v 8.532 h 8.037 v 2.999 h 5.994 z"
     id="Right_outsideCutPath"
     stroke="#FF0000"
     stroke-width="0.1"
     style="font-size:12px;fill:none;fill-rule:evenodd;stroke:#ff0000;stroke-width:0.1;stroke-linecap:round;stroke-dasharray:none"
     vector-effect="non-scaling-stroke" />
  <path
     d="m 122.68396,149.33328 h 3 v -43 H 88.850956 v 43 h -3 v -43 h -32.334 v 43 h -2.999 v -43 h -36.833 v 43 h 3 v 43 H 122.68396 Z"
     id="rowDivider-0_outsideCutPath"
     stroke="#FF0000"
     stroke-width="0.1"
     style="font-size:12px;fill:none;fill-rule:evenodd;stroke:#ff0000;stroke-width:0.1;stroke-linecap:round;stroke-dasharray:none"
     vector-effect="non-scaling-stroke" />
  <path
     d="m 237.08809,150.24561 h 3 v -43 h -100 v 43 h 2.999 v 43 h 29.833 v -43 h 3.002 v 43 h 28.331 v -43 h 3.003 v 43 h 29.832 z"
     id="colDivider-0_outsideCutPath"
     stroke="#FF0000"
     stroke-width="0.1"
     style="font-size:12px;fill:none;fill-rule:evenodd;stroke:#ff0000;stroke-width:0.1;stroke-linecap:round;stroke-dasharray:none"
     vector-effect="non-scaling-stroke" />
  <path
     d="m 127.24561,58.053452 h 3 v -43 H 93.412608 v 43 h -3 v -43 h -32.334 v 43 h -2.999 v -43 h -36.833 v 43 h 3 V 101.05245 H 127.24561 Z"
     id="rowDivider-1_outsideCutPath"
     stroke="#FF0000"
     stroke-width="0.1"
     style="font-size:12px;fill:none;fill-rule:evenodd;stroke:#ff0000;stroke-width:0.1;stroke-linecap:round;stroke-dasharray:none"
     vector-effect="non-scaling-stroke" />
  <path
     d="m 236.17576,55.31646 h 3 v -43 h -100 v 43 h 2.999 v 42.999 h 29.833 v -42.999 h 3.002 v 42.999 h 28.331 v -42.999 h 3.003 v 42.999 h 29.832 z"
     id="colDivider-1_outsideCutPath"
     stroke="#FF0000"
     stroke-width="0.1"
     style="font-size:12px;fill:none;fill-rule:evenodd;stroke:#ff0000;stroke-width:0.1;stroke-linecap:round;stroke-dasharray:none"
     vector-effect="non-scaling-stroke" />
  <path
     d="m 254.36053,118.24349 v 21.138 h 3 v 27.724 h -3 v 21.138 h 18.414 v -3 h 27.724 v 3 h 27.724 v -3 h 27.724 v 3 h 18.414 v -21.138 h -3 v -27.724 h 3 v -21.138 h -18.414 v 3 h -27.724 v -3 h -27.724 v 3 h -27.724 v -3 z"
     id="back_outsideCutPath"
     stroke="#FF0000"
     stroke-width="0.1"
     style="font-size:12px;fill:none;fill-rule:evenodd;stroke:#ff0000;stroke-width:0.1;stroke-linecap:round;stroke-dasharray:none"
     vector-effect="non-scaling-stroke" />
  <path
     sodipodi:type="star"
     style="fill:none;fill-opacity:0.7014;stroke:#ff0000;stroke-width:0.16011685;stroke-opacity:1;stroke-dasharray:none"
     id="path1"
     inkscape:flatsided="false"
     sodipodi:sides="5"
     sodipodi:cx="22.901583"
     sodipodi:cy="241.59557"
     sodipodi:r1="6.9779854"
     sodipodi:r2="3.4889927"
     sodipodi:arg1="0.98279372"
     sodipodi:arg2="1.6111123"
     inkscape:rounded="0"
     inkscape:randomized="0"
     d="m 26.772273,247.4016 -4.011314,-2.31988 -4.185135,1.98925 0.966771,-4.53186 -3.185168,-3.36559 4.608811,-0.48097 2.216592,-4.0693 1.881632,4.23461 4.555097,0.85062 -3.445899,3.09811 z"
     inkscape:transform-center-x="-0.057485389"
     inkscape:transform-center-y="-0.34387969"
     transform="matrix(0.66143766,0,0,0.58970801,13.720842,96.866492)" />
  <path
     sodipodi:type="star"
     style="fill:none;fill-opacity:0.7014;stroke:#ff0000;stroke-width:0.16011685;stroke-opacity:1;stroke-dasharray:none"
     id="path1-8"
     inkscape:flatsided="false"
     sodipodi:sides="5"
     sodipodi:cx="22.901583"
     sodipodi:cy="241.59557"
     sodipodi:r1="6.9779854"
     sodipodi:r2="3.4889927"
     sodipodi:arg1="0.98279372"
     sodipodi:arg2="1.6111123"
     inkscape:rounded="0"
     inkscape:randomized="0"
     d="m 26.772273,247.4016 -4.011314,-2.31988 -4.185135,1.98925 0.966771,-4.53186 -3.185168,-3.36559 4.608811,-0.48097 2.216592,-4.0693 1.881632,4.23461 4.555097,0.85062 -3.445899,3.09811 z"
     inkscape:transform-center-x="-0.057485389"
     inkscape:transform-center-y="-0.34387969"
     transform="matrix(0.66143766,0,0,0.58970801,77.658209,114.68911)" />
  <path
     sodipodi:type="star"
     style="fill:none;fill-opacity:0.7014;stroke:#ff0000;stroke-width:0.16011685;stroke-opacity:1;stroke-dasharray:none"
     id="path1-5"
     inkscape:flatsided="false"
     sodipodi:sides="5"
     sodipodi:cx="22.901583"
     sodipodi:cy="241.59557"
     sodipodi:r1="6.9779854"
     sodipodi:r2="3.4889927"
     sodipodi:arg1="0.98279372"
     sodipodi:arg2="1.6111123"
     inkscape:rounded="0"
     inkscape:randomized="0"
     d="m 26.772273,247.4016 -4.011314,-2.31988 -4.185135,1.98925 0.966771,-4.53186 -3.185168,-3.36559 4.608811,-0.48097 2.216592,-4.0693 1.881632,4.23461 4.555097,0.85062 -3.445899,3.09811 z"
     inkscape:transform-center-x="-0.057485389"
     inkscape:transform-center-y="-0.34387969"
     transform="matrix(0.66143766,0,0,0.58970801,50.55907,104.87855)" />
  <path
     sodipodi:type="star"
     style="fill:none;fill-opacity:0.7014;stroke:#ff0000;stroke-width:0.16011685;stroke-opacity:1;stroke-dasharray:none"
     id="path1-7"
     inkscape:flatsided="false"
     sodipodi:sides="5"
     sodipodi:cx="22.901583"
     sodipodi:cy="241.59557"
     sodipodi:r1="6.9779854"
     sodipodi:r2="3.4889927"
     sodipodi:arg1="0.98279372"
     sodipodi:arg2="1.6111123"
     inkscape:rounded="0"
     inkscape:randomized="0"
     d="m 26.772273,247.4016 -4.011314,-2.31988 -4.185135,1.98925 0.966771,-4.53186 -3.185168,-3.36559 4.608811,-0.48097 2.216592,-4.0693 1.881632,4.23461 4.555097,0.85062 -3.445899,3.09811 z"
     inkscape:transform-center-x="-0.057485389"
     inkscape:transform-center-y="-0.34387969"
     transform="matrix(0.66143766,0,0,0.58970801,15.483563,130.52187)" />
  <path
     sodipodi:type="star"
     style="fill:none;fill-opacity:0.7014;stroke:#ff0000;stroke-width:0.16011685;stroke-opacity:1;stroke-dasharray:none"
     id="path1-0"
     inkscape:flatsided="false"
     sodipodi:sides="5"
     sodipodi:cx="22.901583"
     sodipodi:cy="241.59557"
     sodipodi:r1="6.9779854"
     sodipodi:r2="3.4889927"
     sodipodi:arg1="0.98279372"
     sodipodi:arg2="1.6111123"
     inkscape:rounded="0"
     inkscape:randomized="0"
     d="m 26.772273,247.4016 -4.011314,-2.31988 -4.185135,1.98925 0.966771,-4.53186 -3.185168,-3.36559 4.608811,-0.48097 2.216592,-4.0693 1.881632,4.23461 4.555097,0.85062 -3.445899,3.09811 z"
     inkscape:transform-center-x="-0.057485389"
     inkscape:transform-center-y="-0.34387969"
     transform="matrix(0.66143766,0,0,0.58970801,65.312518,132.10198)" />
  <path
     sodipodi:type="star"
     style="fill:none;fill-opacity:0.7014;stroke:#ff0000;stroke-width:0.16011685;stroke-opacity:1;stroke-dasharray:none"
     id="path1-1"
     inkscape:flatsided="false"
     sodipodi:sides="5"
     sodipodi:cx="22.901583"
     sodipodi:cy="241.59557"
     sodipodi:r1="6.9779854"
     sodipodi:r2="3.4889927"
     sodipodi:arg1="0.98279372"
     sodipodi:arg2="1.6111123"
     inkscape:rounded="0"
     inkscape:randomized="0"
     d="m 26.772273,247.4016 -4.011314,-2.31988 -4.185135,1.98925 0.966771,-4.53186 -3.185168,-3.36559 4.608811,-0.48097 2.216592,-4.0693 1.881632,4.23461 4.555097,0.85062 -3.445899,3.09811 z"
     inkscape:transform-center-x="-0.057485389"
     inkscape:transform-center-y="-0.34387969"
     transform="matrix(0.66143766,0,0,0.58970801,38.949153,120.52999)" />
  <path
     sodipodi:type="star"
     style="fill:none;fill-opacity:0.7014;stroke:#ff0000;stroke-width:0.16011685;stroke-opacity:1;stroke-dasharray:none"
     id="path1-04"
     inkscape:flatsided="false"
     sodipodi:sides="5"
     sodipodi:cx="22.901583"
     sodipodi:cy="241.59557"
     sodipodi:r1="6.9779854"
     sodipodi:r2="3.4889927"
     sodipodi:arg1="0.98279372"
     sodipodi:arg2="1.6111123"
     inkscape:rounded="0"
     inkscape:randomized="0"
     d="m 26.772273,247.4016 -4.011314,-2.31988 -4.185135,1.98925 0.966771,-4.53186 -3.185168,-3.36559 4.608811,-0.48097 2.216592,-4.0693 1.881632,4.23461 4.555097,0.85062 -3.445899,3.09811 z"
     inkscape:transform-center-x="-0.057485389"
     inkscape:transform-center-y="-0.34387969"
     transform="matrix(0.66143766,0,0,0.58970801,88.855189,97.80664)" />
  <path
     sodipodi:type="star"
     style="fill:none;fill-opacity:0.7014;stroke:#ff0000;stroke-width:0.16011685;stroke-opacity:1;stroke-dasharray:none"
     id="path1-6"
     inkscape:flatsided="false"
     sodipodi:sides="5"
     sodipodi:cx="22.901583"
     sodipodi:cy="241.59557"
     sodipodi:r1="6.9779854"
     sodipodi:r2="3.4889927"
     sodipodi:arg1="0.98279372"
     sodipodi:arg2="1.6111123"
     inkscape:rounded="0"
     inkscape:randomized="0"
     d="m 26.772273,247.4016 -4.011314,-2.31988 -4.185135,1.98925 0.966771,-4.53186 -3.185168,-3.36559 4.608811,-0.48097 2.216592,-4.0693 1.881632,4.23461 4.555097,0.85062 -3.445899,3.09811 z"
     inkscape:transform-center-x="-0.057485389"
     inkscape:transform-center-y="-0.34387969"
     transform="matrix(0.66143766,0,0,0.58970801,89.08924,131.42632)" />
  <path
     sodipodi:type="star"
     style="fill:none;fill-opacity:0.7014;stroke:#ff0000;stroke-width:0.16011685;stroke-opacity:1;stroke-dasharray:none"
     id="path1-4"
     inkscape:flatsided="false"
     sodipodi:sides="5"
     sodipodi:cx="22.901583"
     sodipodi:cy="241.59557"
     sodipodi:r1="6.9779854"
     sodipodi:r2="3.4889927"
     sodipodi:arg1="0.98279372"
     sodipodi:arg2="1.6111123"
     inkscape:rounded="0"
     inkscape:randomized="0"
     d="m 26.772273,247.4016 -4.011314,-2.31988 -4.185135,1.98925 0.966771,-4.53186 -3.185168,-3.36559 4.608811,-0.48097 2.216592,-4.0693 1.881632,4.23461 4.555097,0.85062 -3.445899,3.09811 z"
     inkscape:transform-center-x="-0.057485389"
     inkscape:transform-center-y="-0.34387969"
     transform="matrix(0.66143766,0,0,0.58970801,23.243768,111.79659)" />
  <path
     sodipodi:type="star"
     style="fill:none;fill-opacity:0.7014;stroke:#ff0000;stroke-width:0.16011685;stroke-opacity:1;stroke-dasharray:none"
     id="path1-75"
     inkscape:flatsided="false"
     sodipodi:sides="5"
     sodipodi:cx="22.901583"
     sodipodi:cy="241.59557"
     sodipodi:r1="6.9779854"
     sodipodi:r2="3.4889927"
     sodipodi:arg1="0.98279372"
     sodipodi:arg2="1.6111123"
     inkscape:rounded="0"
     inkscape:randomized="0"
     d="m 26.772273,247.4016 -4.011314,-2.31988 -4.185135,1.98925 0.966771,-4.53186 -3.185168,-3.36559 4.608811,-0.48097 2.216592,-4.0693 1.881632,4.23461 4.555097,0.85062 -3.445899,3.09811 z"
     inkscape:transform-center-x="-0.057485389"
     inkscape:transform-center-y="-0.34387969"
     transform="matrix(0.66143766,0,0,0.58970801,485.44199,98.96181)" />
  <path
     sodipodi:type="star"
     style="fill:none;fill-opacity:0.7014;stroke:#ff0000;stroke-width:0.16011685;stroke-opacity:1;stroke-dasharray:none"
     id="path1-9"
     inkscape:flatsided="false"
     sodipodi:sides="5"
     sodipodi:cx="22.901583"
     sodipodi:cy="241.59557"
     sodipodi:r1="6.9779854"
     sodipodi:r2="3.4889927"
     sodipodi:arg1="0.98279372"
     sodipodi:arg2="1.6111123"
     inkscape:rounded="0"
     inkscape:randomized="0"
     d="m 26.772273,247.4016 -4.011314,-2.31988 -4.185135,1.98925 0.966771,-4.53186 -3.185168,-3.36559 4.608811,-0.48097 2.216592,-4.0693 1.881632,4.23461 4.555097,0.85062 -3.445899,3.09811 z"
     inkscape:transform-center-x="-0.057485389"
     inkscape:transform-center-y="-0.34387969"
     transform="matrix(0.66143766,0,0,0.58970801,525.5384,96.21914)" />
  <path
     sodipodi:type="star"
     style="fill:none;fill-opacity:0.7014;stroke:#ff0000;stroke-width:0.16011685;stroke-opacity:1;stroke-dasharray:none"
     id="path1-83"
     inkscape:flatsided="false"
     sodipodi:sides="5"
     sodipodi:cx="22.901583"
     sodipodi:cy="241.59557"
     sodipodi:r1="6.9779854"
     sodipodi:r2="3.4889927"
     sodipodi:arg1="0.98279372"
     sodipodi:arg2="1.6111123"
     inkscape:rounded="0"
     inkscape:randomized="0"
     d="m 26.772273,247.4016 -4.011314,-2.31988 -4.185135,1.98925 0.966771,-4.53186 -3.185168,-3.36559 4.608811,-0.48097 2.216592,-4.0693 1.881632,4.23461 4.555097,0.85062 -3.445899,3.09811 z"
     inkscape:transform-center-x="-0.057485389"
     inkscape:transform-center-y="-0.34387969"
     transform="matrix(0.66143766,0,0,0.58970801,561.71111,125.45808)" />
  <path
     sodipodi:type="star"
     style="fill:none;fill-opacity:0.7014;stroke:#ff0000;stroke-width:0.16011685;stroke-opacity:1;stroke-dasharray:none"
     id="path1-87"
     inkscape:flatsided="false"
     sodipodi:sides="5"
     sodipodi:cx="22.901583"
     sodipodi:cy="241.59557"
     sodipodi:r1="6.9779854"
     sodipodi:r2="3.4889927"
     sodipodi:arg1="0.98279372"
     sodipodi:arg2="1.6111123"
     inkscape:rounded="0"
     inkscape:randomized="0"
     d="m 26.772273,247.4016 -4.011314,-2.31988 -4.185135,1.98925 0.966771,-4.53186 -3.185168,-3.36559 4.608811,-0.48097 2.216592,-4.0693 1.881632,4.23461 4.555097,0.85062 -3.445899,3.09811 z"
     inkscape:transform-center-x="-0.057485389"
     inkscape:transform-center-y="-0.34387969"
     transform="matrix(0.66143766,0,0,0.58970801,489.30313,127.70952)" />
  <path
     sodipodi:type="star"
     style="fill:none;fill-opacity:0.7014;stroke:#ff0000;stroke-width:0.16011685;stroke-opacity:1;stroke-dasharray:none"
     id="path1-3"
     inkscape:flatsided="false"
     sodipodi:sides="5"
     sodipodi:cx="22.901583"
     sodipodi:cy="241.59557"
     sodipodi:r1="6.9779854"
     sodipodi:r2="3.4889927"
     sodipodi:arg1="0.98279372"
     sodipodi:arg2="1.6111123"
     inkscape:rounded="0"
     inkscape:randomized="0"
     d="m 26.772273,247.4016 -4.011314,-2.31988 -4.185135,1.98925 0.966771,-4.53186 -3.185168,-3.36559 4.608811,-0.48097 2.216592,-4.0693 1.881632,4.23461 4.555097,0.85062 -3.445899,3.09811 z"
     inkscape:transform-center-x="-0.057485389"
     inkscape:transform-center-y="-0.34387969"
     transform="matrix(0.66143766,0,0,0.58970801,515.62116,123.13265)" />
  <path
     sodipodi:type="star"
     style="fill:none;fill-opacity:0.7014;stroke:#ff0000;stroke-width:0.16011685;stroke-opacity:1;stroke-dasharray:none"
     id="path1-81"
     inkscape:flatsided="false"
     sodipodi:sides="5"
     sodipodi:cx="22.901583"
     sodipodi:cy="241.59557"
     sodipodi:r1="6.9779854"
     sodipodi:r2="3.4889927"
     sodipodi:arg1="0.98279372"
     sodipodi:arg2="1.6111123"
     inkscape:rounded="0"
     inkscape:randomized="0"
     d="m 26.772273,247.4016 -4.011314,-2.31988 -4.185135,1.98925 0.966771,-4.53186 -3.185168,-3.36559 4.608811,-0.48097 2.216592,-4.0693 1.881632,4.23461 4.555097,0.85062 -3.445899,3.09811 z"
     inkscape:transform-center-x="-0.057485389"
     inkscape:transform-center-y="-0.34387969"
     transform="matrix(0.66143766,0,0,0.58970801,562.03301,102.59752)" />
  <path
     sodipodi:type="star"
     style="fill:none;fill-opacity:0.7014;stroke:#ff0000;stroke-width:0.16011685;stroke-opacity:1;stroke-dasharray:none"
     id="path1-31"
     inkscape:flatsided="false"
     sodipodi:sides="5"
     sodipodi:cx="22.901583"
     sodipodi:cy="241.59557"
     sodipodi:r1="6.9779854"
     sodipodi:r2="3.4889927"
     sodipodi:arg1="0.98279372"
     sodipodi:arg2="1.6111123"
     inkscape:rounded="0"
     inkscape:randomized="0"
     d="m 26.772273,247.4016 -4.011314,-2.31988 -4.185135,1.98925 0.966771,-4.53186 -3.185168,-3.36559 4.608811,-0.48097 2.216592,-4.0693 1.881632,4.23461 4.555097,0.85062 -3.445899,3.09811 z"
     inkscape:transform-center-x="-0.057485389"
     inkscape:transform-center-y="-0.34387969"
     transform="matrix(0.66143766,0,0,0.58970801,533.06268,114.744)" />
  <path
     sodipodi:type="star"
     style="fill:none;fill-opacity:0.7014;stroke:#ff0000;stroke-width:0.16011685;stroke-opacity:1;stroke-dasharray:none"
     id="path1-315"
     inkscape:flatsided="false"
     sodipodi:sides="5"
     sodipodi:cx="22.901583"
     sodipodi:cy="241.59557"
     sodipodi:r1="6.9779854"
     sodipodi:r2="3.4889927"
     sodipodi:arg1="0.98279372"
     sodipodi:arg2="1.6111123"
     inkscape:rounded="0"
     inkscape:randomized="0"
     d="m 26.772273,247.4016 -4.011314,-2.31988 -4.185135,1.98925 0.966771,-4.53186 -3.185168,-3.36559 4.608811,-0.48097 2.216592,-4.0693 1.881632,4.23461 4.555097,0.85062 -3.445899,3.09811 z"
     inkscape:transform-center-x="-0.057485389"
     inkscape:transform-center-y="-0.34387969"
     transform="matrix(0.66143766,0,0,0.58970801,538.87612,131.00169)" />
  <path
     sodipodi:type="star"
     style="fill:none;fill-opacity:0.7014;stroke:#ff0000;stroke-width:0.16011685;stroke-opacity:1;stroke-dasharray:none"
     id="path1-06"
     inkscape:flatsided="false"
     sodipodi:sides="5"
     sodipodi:cx="22.901583"
     sodipodi:cy="241.59557"
     sodipodi:r1="6.9779854"
     sodipodi:r2="3.4889927"
     sodipodi:arg1="0.98279372"
     sodipodi:arg2="1.6111123"
     inkscape:rounded="0"
     inkscape:randomized="0"
     d="m 26.772273,247.4016 -4.011314,-2.31988 -4.185135,1.98925 0.966771,-4.53186 -3.185168,-3.36559 4.608811,-0.48097 2.216592,-4.0693 1.881632,4.23461 4.555097,0.85062 -3.445899,3.09811 z"
     inkscape:transform-center-x="-0.057485389"
     inkscape:transform-center-y="-0.34387969"
     transform="matrix(0.66143766,0,0,0.58970801,502.92116,110.77309)" />
  <path
     sodipodi:type="star"
     style="fill:none;fill-opacity:0.7014;stroke:#ff0000;stroke-width:0.16011685;stroke-opacity:1;stroke-dasharray:none"
     id="path1-90"
     inkscape:flatsided="false"
     sodipodi:sides="5"
     sodipodi:cx="22.901583"
     sodipodi:cy="241.59557"
     sodipodi:r1="6.9779854"
     sodipodi:r2="3.4889927"
     sodipodi:arg1="0.98279372"
     sodipodi:arg2="1.6111123"
     inkscape:rounded="0"
     inkscape:randomized="0"
     d="m 26.772273,247.4016 -4.011314,-2.31988 -4.185135,1.98925 0.966771,-4.53186 -3.185168,-3.36559 4.608811,-0.48097 2.216592,-4.0693 1.881632,4.23461 4.555097,0.85062 -3.445899,3.09811 z"
     inkscape:transform-center-x="-0.057485389"
     inkscape:transform-center-y="-0.34387969"
     transform="matrix(0.66143766,0,0,0.58970801,551.4022,110.1955)" />
  <path
     sodipodi:type="star"
     style="fill:none;fill-opacity:0.7014;stroke:#ff0000;stroke-width:0.16011685;stroke-opacity:1;stroke-dasharray:none"
     id="path1-53"
     inkscape:flatsided="false"
     sodipodi:sides="5"
     sodipodi:cx="22.901583"
     sodipodi:cy="241.59557"
     sodipodi:r1="6.9779854"
     sodipodi:r2="3.4889927"
     sodipodi:arg1="0.98279372"
     sodipodi:arg2="1.6111123"
     inkscape:rounded="0"
     inkscape:randomized="0"
     d="m 26.772273,247.4016 -4.011314,-2.31988 -4.185135,1.98925 0.966771,-4.53186 -3.185168,-3.36559 4.608811,-0.48097 2.216592,-4.0693 1.881632,4.23461 4.555097,0.85062 -3.445899,3.09811 z"
     inkscape:transform-center-x="-0.057485389"
     inkscape:transform-center-y="-0.34387969"
     transform="matrix(0.66143766,0,0,0.58970801,376.66079,113.14386)" />
  <path
     sodipodi:type="star"
     style="fill:none;fill-opacity:0.7014;stroke:#ff0000;stroke-width:0.16011685;stroke-opacity:1;stroke-dasharray:none"
     id="path1-2"
     inkscape:flatsided="false"
     sodipodi:sides="5"
     sodipodi:cx="22.901583"
     sodipodi:cy="241.59557"
     sodipodi:r1="6.9779854"
     sodipodi:r2="3.4889927"
     sodipodi:arg1="0.98279372"
     sodipodi:arg2="1.6111123"
     inkscape:rounded="0"
     inkscape:randomized="0"
     d="m 26.772273,247.4016 -4.011314,-2.31988 -4.185135,1.98925 0.966771,-4.53186 -3.185168,-3.36559 4.608811,-0.48097 2.216592,-4.0693 1.881632,4.23461 4.555097,0.85062 -3.445899,3.09811 z"
     inkscape:transform-center-x="-0.057485389"
     inkscape:transform-center-y="-0.34387969"
     transform="matrix(0.66143766,0,0,0.58970801,396.63838,120.24227)" />
  <path
     sodipodi:type="star"
     style="fill:none;fill-opacity:0.7014;stroke:#ff0000;stroke-width:0.16011685;stroke-opacity:1;stroke-dasharray:none"
     id="path1-97"
     inkscape:flatsided="false"
     sodipodi:sides="5"
     sodipodi:cx="22.901583"
     sodipodi:cy="241.59557"
     sodipodi:r1="6.9779854"
     sodipodi:r2="3.4889927"
     sodipodi:arg1="0.98279372"
     sodipodi:arg2="1.6111123"
     inkscape:rounded="0"
     inkscape:randomized="0"
     d="m 26.772273,247.4016 -4.011314,-2.31988 -4.185135,1.98925 0.966771,-4.53186 -3.185168,-3.36559 4.608811,-0.48097 2.216592,-4.0693 1.881632,4.23461 4.555097,0.85062 -3.445899,3.09811 z"
     inkscape:transform-center-x="-0.057485389"
     inkscape:transform-center-y="-0.34387969"
     transform="matrix(0.66143766,0,0,0.58970801,427.44168,138.04306)" />
  <path
     sodipodi:type="star"
     style="fill:none;fill-opacity:0.7014;stroke:#ff0000;stroke-width:0.16011685;stroke-opacity:1;stroke-dasharray:none"
     id="path1-65"
     inkscape:flatsided="false"
     sodipodi:sides="5"
     sodipodi:cx="22.901583"
     sodipodi:cy="241.59557"
     sodipodi:r1="6.9779854"
     sodipodi:r2="3.4889927"
     sodipodi:arg1="0.98279372"
     sodipodi:arg2="1.6111123"
     inkscape:rounded="0"
     inkscape:randomized="0"
     d="m 26.772273,247.4016 -4.011314,-2.31988 -4.185135,1.98925 0.966771,-4.53186 -3.185168,-3.36559 4.608811,-0.48097 2.216592,-4.0693 1.881632,4.23461 4.555097,0.85062 -3.445899,3.09811 z"
     inkscape:transform-center-x="-0.057485389"
     inkscape:transform-center-y="-0.34387969"
     transform="matrix(0.66143766,0,0,0.58970801,376.24663,136.51138)" />
  <path
     sodipodi:type="star"
     style="fill:none;fill-opacity:0.7014;stroke:#ff0000;stroke-width:0.16011685;stroke-opacity:1;stroke-dasharray:none"
     id="path1-28"
     inkscape:flatsided="false"
     sodipodi:sides="5"
     sodipodi:cx="22.901583"
     sodipodi:cy="241.59557"
     sodipodi:r1="6.9779854"
     sodipodi:r2="3.4889927"
     sodipodi:arg1="0.98279372"
     sodipodi:arg2="1.6111123"
     inkscape:rounded="0"
     inkscape:randomized="0"
     d="m 26.772273,247.4016 -4.011314,-2.31988 -4.185135,1.98925 0.966771,-4.53186 -3.185168,-3.36559 4.608811,-0.48097 2.216592,-4.0693 1.881632,4.23461 4.555097,0.85062 -3.445899,3.09811 z"
     inkscape:transform-center-x="-0.057485389"
     inkscape:transform-center-y="-0.34387969"
     transform="matrix(0.66143766,0,0,0.58970801,398.31991,137.90276)" />
  <path
     sodipodi:type="star"
     style="fill:none;fill-opacity:0.7014;stroke:#ff0000;stroke-width:0.16011685;stroke-opacity:1;stroke-dasharray:none"
     id="path1-48"
     inkscape:flatsided="false"
     sodipodi:sides="5"
     sodipodi:cx="22.901583"
     sodipodi:cy="241.59557"
     sodipodi:r1="6.9779854"
     sodipodi:r2="3.4889927"
     sodipodi:arg1="0.98279372"
     sodipodi:arg2="1.6111123"
     inkscape:rounded="0"
     inkscape:randomized="0"
     d="m 26.772273,247.4016 -4.011314,-2.31988 -4.185135,1.98925 0.966771,-4.53186 -3.185168,-3.36559 4.608811,-0.48097 2.216592,-4.0693 1.881632,4.23461 4.555097,0.85062 -3.445899,3.09811 z"
     inkscape:transform-center-x="-0.057485389"
     inkscape:transform-center-y="-0.34387969"
     transform="matrix(0.66143766,0,0,0.58970801,413.76998,126.34127)" />
  <path
     sodipodi:type="star"
     style="fill:none;fill-opacity:0.7014;stroke:#ff0000;stroke-width:0.16011685;stroke-opacity:1;stroke-dasharray:none"
     id="path1-88"
     inkscape:flatsided="false"
     sodipodi:sides="5"
     sodipodi:cx="22.901583"
     sodipodi:cy="241.59557"
     sodipodi:r1="6.9779854"
     sodipodi:r2="3.4889927"
     sodipodi:arg1="0.98279372"
     sodipodi:arg2="1.6111123"
     inkscape:rounded="0"
     inkscape:randomized="0"
     d="m 26.772273,247.4016 -4.011314,-2.31988 -4.185135,1.98925 0.966771,-4.53186 -3.185168,-3.36559 4.608811,-0.48097 2.216592,-4.0693 1.881632,4.23461 4.555097,0.85062 -3.445899,3.09811 z"
     inkscape:transform-center-x="-0.057485389"
     inkscape:transform-center-y="-0.34387969"
     transform="matrix(0.66143766,0,0,0.58970801,443.12703,121.62625)" />
  <path
     sodipodi:type="star"
     style="fill:none;fill-opacity:0.7014;stroke:#ff0000;stroke-width:0.16011685;stroke-opacity:1;stroke-dasharray:none"
     id="path1-23"
     inkscape:flatsided="false"
     sodipodi:sides="5"
     sodipodi:cx="22.901583"
     sodipodi:cy="241.59557"
     sodipodi:r1="6.9779854"
     sodipodi:r2="3.4889927"
     sodipodi:arg1="0.98279372"
     sodipodi:arg2="1.6111123"
     inkscape:rounded="0"
     inkscape:randomized="0"
     d="m 26.772273,247.4016 -4.011314,-2.31988 -4.185135,1.98925 0.966771,-4.53186 -3.185168,-3.36559 4.608811,-0.48097 2.216592,-4.0693 1.881632,4.23461 4.555097,0.85062 -3.445899,3.09811 z"
     inkscape:transform-center-x="-0.057485389"
     inkscape:transform-center-y="-0.34387969"
     transform="matrix(0.66143766,0,0,0.58970801,423.71869,116.47582)" />
  <path
     sodipodi:type="star"
     style="fill:none;fill-opacity:0.7014;stroke:#ff0000;stroke-width:0.16011685;stroke-opacity:1;stroke-dasharray:none"
     id="path1-95"
     inkscape:flatsided="false"
     sodipodi:sides="5"
     sodipodi:cx="22.901583"
     sodipodi:cy="241.59557"
     sodipodi:r1="6.9779854"
     sodipodi:r2="3.4889927"
     sodipodi:arg1="0.98279372"
     sodipodi:arg2="1.6111123"
     inkscape:rounded="0"
     inkscape:randomized="0"
     d="m 26.772273,247.4016 -4.011314,-2.31988 -4.185135,1.98925 0.966771,-4.53186 -3.185168,-3.36559 4.608811,-0.48097 2.216592,-4.0693 1.881632,4.23461 4.555097,0.85062 -3.445899,3.09811 z"
     inkscape:transform-center-x="-0.057485389"
     inkscape:transform-center-y="-0.34387969"
     transform="matrix(0.66143766,0,0,0.58970801,443.90289,137.58574)" />
  <path
     sodipodi:type="star"
     style="fill:none;fill-opacity:0.7014;stroke:#ff0000;stroke-width:0.16011685;stroke-opacity:1;stroke-dasharray:none"
     id="path1-33"
     inkscape:flatsided="false"
     sodipodi:sides="5"
     sodipodi:cx="22.901583"
     sodipodi:cy="241.59557"
     sodipodi:r1="6.9779854"
     sodipodi:r2="3.4889927"
     sodipodi:arg1="0.98279372"
     sodipodi:arg2="1.6111123"
     inkscape:rounded="0"
     inkscape:randomized="0"
     d="m 26.772273,247.4016 -4.011314,-2.31988 -4.185135,1.98925 0.966771,-4.53186 -3.185168,-3.36559 4.608811,-0.48097 2.216592,-4.0693 1.881632,4.23461 4.555097,0.85062 -3.445899,3.09811 z"
     inkscape:transform-center-x="-0.057485389"
     inkscape:transform-center-y="-0.34387969"
     transform="matrix(0.66143766,0,0,0.58970801,255.81373,-2.7057158)" />
  <path
     sodipodi:type="star"
     style="fill:none;fill-opacity:0.7014;stroke:#ff0000;stroke-width:0.16011685;stroke-opacity:1;stroke-dasharray:none"
     id="path1-42"
     inkscape:flatsided="false"
     sodipodi:sides="5"
     sodipodi:cx="22.901583"
     sodipodi:cy="241.59557"
     sodipodi:r1="6.9779854"
     sodipodi:r2="3.4889927"
     sodipodi:arg1="0.98279372"
     sodipodi:arg2="1.6111123"
     inkscape:rounded="0"
     inkscape:randomized="0"
     d="m 26.772273,247.4016 -4.011314,-2.31988 -4.185135,1.98925 0.966771,-4.53186 -3.185168,-3.36559 4.608811,-0.48097 2.216592,-4.0693 1.881632,4.23461 4.555097,0.85062 -3.445899,3.09811 z"
     inkscape:transform-center-x="-0.057485389"
     inkscape:transform-center-y="-0.34387969"
     transform="matrix(0.66143766,0,0,0.58970801,292.81841,23.03473)" />
  <path
     sodipodi:type="star"
     style="fill:none;fill-opacity:0.7014;stroke:#ff0000;stroke-width:0.16011685;stroke-opacity:1;stroke-dasharray:none"
     id="path1-86"
     inkscape:flatsided="false"
     sodipodi:sides="5"
     sodipodi:cx="22.901583"
     sodipodi:cy="241.59557"
     sodipodi:r1="6.9779854"
     sodipodi:r2="3.4889927"
     sodipodi:arg1="0.98279372"
     sodipodi:arg2="1.6111123"
     inkscape:rounded="0"
     inkscape:randomized="0"
     d="m 26.772273,247.4016 -4.011314,-2.31988 -4.185135,1.98925 0.966771,-4.53186 -3.185168,-3.36559 4.608811,-0.48097 2.216592,-4.0693 1.881632,4.23461 4.555097,0.85062 -3.445899,3.09811 z"
     inkscape:transform-center-x="-0.057485389"
     inkscape:transform-center-y="-0.34387969"
     transform="matrix(0.66143766,0,0,0.58970801,323.4447,16.601468)" />
  <path
     sodipodi:type="star"
     style="fill:none;fill-opacity:0.7014;stroke:#ff0000;stroke-width:0.16011685;stroke-opacity:1;stroke-dasharray:none"
     id="path1-79"
     inkscape:flatsided="false"
     sodipodi:sides="5"
     sodipodi:cx="22.901583"
     sodipodi:cy="241.59557"
     sodipodi:r1="6.9779854"
     sodipodi:r2="3.4889927"
     sodipodi:arg1="0.98279372"
     sodipodi:arg2="1.6111123"
     inkscape:rounded="0"
     inkscape:randomized="0"
     d="m 26.772273,247.4016 -4.011314,-2.31988 -4.185135,1.98925 0.966771,-4.53186 -3.185168,-3.36559 4.608811,-0.48097 2.216592,-4.0693 1.881632,4.23461 4.555097,0.85062 -3.445899,3.09811 z"
     inkscape:transform-center-x="-0.057485389"
     inkscape:transform-center-y="-0.34387969"
     transform="matrix(0.66143766,0,0,0.58970801,257.75835,15.353196)" />
  <path
     sodipodi:type="star"
     style="fill:none;fill-opacity:0.7014;stroke:#ff0000;stroke-width:0.16011685;stroke-opacity:1;stroke-dasharray:none"
     id="path1-18"
     inkscape:flatsided="false"
     sodipodi:sides="5"
     sodipodi:cx="22.901583"
     sodipodi:cy="241.59557"
     sodipodi:r1="6.9779854"
     sodipodi:r2="3.4889927"
     sodipodi:arg1="0.98279372"
     sodipodi:arg2="1.6111123"
     inkscape:rounded="0"
     inkscape:randomized="0"
     d="m 26.772273,247.4016 -4.011314,-2.31988 -4.185135,1.98925 0.966771,-4.53186 -3.185168,-3.36559 4.608811,-0.48097 2.216592,-4.0693 1.881632,4.23461 4.555097,0.85062 -3.445899,3.09811 z"
     inkscape:transform-center-x="-0.057485389"
     inkscape:transform-center-y="-0.34387969"
     transform="matrix(0.66143766,0,0,0.58970801,280.04994,3.9878201)" />
  <path
     sodipodi:type="star"
     style="fill:none;fill-opacity:0.7014;stroke:#ff0000;stroke-width:0.16011685;stroke-opacity:1;stroke-dasharray:none"
     id="path1-96"
     inkscape:flatsided="false"
     sodipodi:sides="5"
     sodipodi:cx="22.901583"
     sodipodi:cy="241.59557"
     sodipodi:r1="6.9779854"
     sodipodi:r2="3.4889927"
     sodipodi:arg1="0.98279372"
     sodipodi:arg2="1.6111123"
     inkscape:rounded="0"
     inkscape:randomized="0"
     d="m 26.772273,247.4016 -4.011314,-2.31988 -4.185135,1.98925 0.966771,-4.53186 -3.185168,-3.36559 4.608811,-0.48097 2.216592,-4.0693 1.881632,4.23461 4.555097,0.85062 -3.445899,3.09811 z"
     inkscape:transform-center-x="-0.057485389"
     inkscape:transform-center-y="-0.34387969"
     transform="matrix(0.66143766,0,0,0.58970801,303.93521,6.4702202)" />
  <path
     sodipodi:type="star"
     style="fill:none;fill-opacity:0.7014;stroke:#ff0000;stroke-width:0.16011685;stroke-opacity:1;stroke-dasharray:none"
     id="path1-14"
     inkscape:flatsided="false"
     sodipodi:sides="5"
     sodipodi:cx="22.901583"
     sodipodi:cy="241.59557"
     sodipodi:r1="6.9779854"
     sodipodi:r2="3.4889927"
     sodipodi:arg1="0.98279372"
     sodipodi:arg2="1.6111123"
     inkscape:rounded="0"
     inkscape:randomized="0"
     d="m 26.772273,247.4016 -4.011314,-2.31988 -4.185135,1.98925 0.966771,-4.53186 -3.185168,-3.36559 4.608811,-0.48097 2.216592,-4.0693 1.881632,4.23461 4.555097,0.85062 -3.445899,3.09811 z"
     inkscape:transform-center-x="-0.057485389"
     inkscape:transform-center-y="-0.34387969"
     transform="matrix(0.66143766,0,0,0.58970801,336.25325,2.7049895)" />
  <path
     sodipodi:type="star"
     style="fill:none;fill-opacity:0.7014;stroke:#ff0000;stroke-width:0.16011685;stroke-opacity:1;stroke-dasharray:none"
     id="path1-74"
     inkscape:flatsided="false"
     sodipodi:sides="5"
     sodipodi:cx="22.901583"
     sodipodi:cy="241.59557"
     sodipodi:r1="6.9779854"
     sodipodi:r2="3.4889927"
     sodipodi:arg1="0.98279372"
     sodipodi:arg2="1.6111123"
     inkscape:rounded="0"
     inkscape:randomized="0"
     d="m 26.772273,247.4016 -4.011314,-2.31988 -4.185135,1.98925 0.966771,-4.53186 -3.185168,-3.36559 4.608811,-0.48097 2.216592,-4.0693 1.881632,4.23461 4.555097,0.85062 -3.445899,3.09811 z"
     inkscape:transform-center-x="-0.057485389"
     inkscape:transform-center-y="-0.34387969"
     transform="matrix(0.66143766,0,0,0.58970801,337.8784,27.658431)" />
  <path
     sodipodi:type="star"
     style="fill:none;fill-opacity:0.7014;stroke:#ff0000;stroke-width:0.16011685;stroke-opacity:1;stroke-dasharray:none"
     id="path1-43"
     inkscape:flatsided="false"
     sodipodi:sides="5"
     sodipodi:cx="22.901583"
     sodipodi:cy="241.59557"
     sodipodi:r1="6.9779854"
     sodipodi:r2="3.4889927"
     sodipodi:arg1="0.98279372"
     sodipodi:arg2="1.6111123"
     inkscape:rounded="0"
     inkscape:randomized="0"
     d="m 26.772273,247.4016 -4.011314,-2.31988 -4.185135,1.98925 0.966771,-4.53186 -3.185168,-3.36559 4.608811,-0.48097 2.216592,-4.0693 1.881632,4.23461 4.555097,0.85062 -3.445899,3.09811 z"
     inkscape:transform-center-x="-0.057485389"
     inkscape:transform-center-y="-0.34387969"
     transform="matrix(0.66143766,0,0,0.58970801,309.41129,30.768711)" />
  <path
     sodipodi:type="star"
     style="fill:none;fill-opacity:0.7014;stroke:#ff0000;stroke-width:0.16011685;stroke-opacity:1;stroke-dasharray:none"
     id="path1-432"
     inkscape:flatsided="false"
     sodipodi:sides="5"
     sodipodi:cx="22.901583"
     sodipodi:cy="241.59557"
     sodipodi:r1="6.9779854"
     sodipodi:r2="3.4889927"
     sodipodi:arg1="0.98279372"
     sodipodi:arg2="1.6111123"
     inkscape:rounded="0"
     inkscape:randomized="0"
     d="m 26.772273,247.4016 -4.011314,-2.31988 -4.185135,1.98925 0.966771,-4.53186 -3.185168,-3.36559 4.608811,-0.48097 2.216592,-4.0693 1.881632,4.23461 4.555097,0.85062 -3.445899,3.09811 z"
     inkscape:transform-center-x="-0.057485389"
     inkscape:transform-center-y="-0.34387969"
     transform="matrix(0.66143766,0,0,0.58970801,274.17422,26.038898)" />
  <path
     sodipodi:type="star"
     style="fill:none;fill-opacity:0.7014;stroke:#ff0000;stroke-width:0.16011685;stroke-opacity:1;stroke-dasharray:none"
     id="path1-334"
     inkscape:flatsided="false"
     sodipodi:sides="5"
     sodipodi:cx="22.901583"
     sodipodi:cy="241.59557"
     sodipodi:r1="6.9779854"
     sodipodi:r2="3.4889927"
     sodipodi:arg1="0.98279372"
     sodipodi:arg2="1.6111123"
     inkscape:rounded="0"
     inkscape:randomized="0"
     d="m 26.772273,247.4016 -4.011314,-2.31988 -4.185135,1.98925 0.966771,-4.53186 -3.185168,-3.36559 4.608811,-0.48097 2.216592,-4.0693 1.881632,4.23461 4.555097,0.85062 -3.445899,3.09811 z"
     inkscape:transform-center-x="-0.057485389"
     inkscape:transform-center-y="-0.34387969"
     transform="matrix(0.66143766,0,0,0.58970801,256.90045,29.87381)" />
  <path
     sodipodi:type="star"
     style="fill:none;fill-opacity:0.7014;stroke:#ff0000;stroke-width:0.16011685;stroke-opacity:1;stroke-dasharray:none"
     id="path1-60"
     inkscape:flatsided="false"
     sodipodi:sides="5"
     sodipodi:cx="22.901583"
     sodipodi:cy="241.59557"
     sodipodi:r1="6.9779854"
     sodipodi:r2="3.4889927"
     sodipodi:arg1="0.98279372"
     sodipodi:arg2="1.6111123"
     inkscape:rounded="0"
     inkscape:randomized="0"
     d="m 26.772273,247.4016 -4.011314,-2.31988 -4.185135,1.98925 0.966771,-4.53186 -3.185168,-3.36559 4.608811,-0.48097 2.216592,-4.0693 1.881632,4.23461 4.555097,0.85062 -3.445899,3.09811 z"
     inkscape:transform-center-x="-0.057485389"
     inkscape:transform-center-y="-0.34387969"
     transform="matrix(0.66143766,0,0,0.58970801,321.60741,-2.1839482)" />
  <path
     sodipodi:type="star"
     style="fill:none;fill-opacity:0.7014;stroke:#ff0000;stroke-width:0.16011685;stroke-opacity:1;stroke-dasharray:none"
     id="path1-238"
     inkscape:flatsided="false"
     sodipodi:sides="5"
     sodipodi:cx="22.901583"
     sodipodi:cy="241.59557"
     sodipodi:r1="6.9779854"
     sodipodi:r2="3.4889927"
     sodipodi:arg1="0.98279372"
     sodipodi:arg2="1.6111123"
     inkscape:rounded="0"
     inkscape:randomized="0"
     d="m 26.772273,247.4016 -4.011314,-2.31988 -4.185135,1.98925 0.966771,-4.53186 -3.185168,-3.36559 4.608811,-0.48097 2.216592,-4.0693 1.881632,4.23461 4.555097,0.85062 -3.445899,3.09811 z"
     inkscape:transform-center-x="-0.057485389"
     inkscape:transform-center-y="-0.34387969"
     transform="matrix(0.66143766,0,0,0.58970801,493.87336,74.019142)" />
  <path
     sodipodi:type="star"
     style="fill:none;fill-opacity:0.7014;stroke:#ff0000;stroke-width:0.16011685;stroke-opacity:1;stroke-dasharray:none"
     id="path1-15"
     inkscape:flatsided="false"
     sodipodi:sides="5"
     sodipodi:cx="22.901583"
     sodipodi:cy="241.59557"
     sodipodi:r1="6.9779854"
     sodipodi:r2="3.4889927"
     sodipodi:arg1="0.98279372"
     sodipodi:arg2="1.6111123"
     inkscape:rounded="0"
     inkscape:randomized="0"
     d="m 26.772273,247.4016 -4.011314,-2.31988 -4.185135,1.98925 0.966771,-4.53186 -3.185168,-3.36559 4.608811,-0.48097 2.216592,-4.0693 1.881632,4.23461 4.555097,0.85062 -3.445899,3.09811 z"
     inkscape:transform-center-x="-0.057485389"
     inkscape:transform-center-y="-0.34387969"
     transform="matrix(0.66143766,0,0,0.58970801,519.07658,76.465765)" />
  <path
     sodipodi:type="star"
     style="fill:none;fill-opacity:0.7014;stroke:#ff0000;stroke-width:0.16011685;stroke-opacity:1;stroke-dasharray:none"
     id="path1-78"
     inkscape:flatsided="false"
     sodipodi:sides="5"
     sodipodi:cx="22.901583"
     sodipodi:cy="241.59557"
     sodipodi:r1="6.9779854"
     sodipodi:r2="3.4889927"
     sodipodi:arg1="0.98279372"
     sodipodi:arg2="1.6111123"
     inkscape:rounded="0"
     inkscape:randomized="0"
     d="m 26.772273,247.4016 -4.011314,-2.31988 -4.185135,1.98925 0.966771,-4.53186 -3.185168,-3.36559 4.608811,-0.48097 2.216592,-4.0693 1.881632,4.23461 4.555097,0.85062 -3.445899,3.09811 z"
     inkscape:transform-center-x="-0.057485389"
     inkscape:transform-center-y="-0.34387969"
     transform="matrix(0.66143766,0,0,0.58970801,554.41855,79.028337)" />
  <path
     sodipodi:type="star"
     style="fill:none;fill-opacity:0.7014;stroke:#ff0000;stroke-width:0.16011685;stroke-opacity:1;stroke-dasharray:none"
     id="path1-91"
     inkscape:flatsided="false"
     sodipodi:sides="5"
     sodipodi:cx="22.901583"
     sodipodi:cy="241.59557"
     sodipodi:r1="6.9779854"
     sodipodi:r2="3.4889927"
     sodipodi:arg1="0.98279372"
     sodipodi:arg2="1.6111123"
     inkscape:rounded="0"
     inkscape:randomized="0"
     d="m 26.772273,247.4016 -4.011314,-2.31988 -4.185135,1.98925 0.966771,-4.53186 -3.185168,-3.36559 4.608811,-0.48097 2.216592,-4.0693 1.881632,4.23461 4.555097,0.85062 -3.445899,3.09811 z"
     inkscape:transform-center-x="-0.057485389"
     inkscape:transform-center-y="-0.34387969"
     transform="matrix(0.66143766,0,0,0.58970801,547.31985,93.268352)" />
  <path
     sodipodi:type="star"
     style="fill:none;fill-opacity:0.7014;stroke:#ff0000;stroke-width:0.16011685;stroke-opacity:1;stroke-dasharray:none"
     id="path1-901"
     inkscape:flatsided="false"
     sodipodi:sides="5"
     sodipodi:cx="22.901583"
     sodipodi:cy="241.59557"
     sodipodi:r1="6.9779854"
     sodipodi:r2="3.4889927"
     sodipodi:arg1="0.98279372"
     sodipodi:arg2="1.6111123"
     inkscape:rounded="0"
     inkscape:randomized="0"
     d="m 26.772273,247.4016 -4.011314,-2.31988 -4.185135,1.98925 0.966771,-4.53186 -3.185168,-3.36559 4.608811,-0.48097 2.216592,-4.0693 1.881632,4.23461 4.555097,0.85062 -3.445899,3.09811 z"
     inkscape:transform-center-x="-0.057485389"
     inkscape:transform-center-y="-0.34387969"
     transform="matrix(0.66143766,0,0,0.58970801,506.69239,91.315118)" />
</svg>
