<?xml version="1.0" encoding="UTF-8" standalone="no"?>
<svg
   width="600mm"
   height="300mm"
   viewBox="0 0 599.99998 300.00001"
   version="1.1"
   preserveAspectRatio="xMidYMid"
   id="svg1"
   sodipodi:docname="new_lamp_1.svg"
   inkscape:version="1.3 (0e150ed6c4, 2023-07-21)"
   xmlns:inkscape="http://www.inkscape.org/namespaces/inkscape"
   xmlns:sodipodi="http://sodipodi.sourceforge.net/DTD/sodipodi-0.dtd"
   xmlns="http://www.w3.org/2000/svg"
   xmlns:svg="http://www.w3.org/2000/svg">
  <defs
     id="defs1" />
  <sodipodi:namedview
     id="namedview1"
     pagecolor="#ffffff"
     bordercolor="#000000"
     borderopacity="0.25"
     inkscape:showpageshadow="2"
     inkscape:pageopacity="0.0"
     inkscape:pagecheckerboard="0"
     inkscape:deskcolor="#d1d1d1"
     inkscape:document-units="mm"
     inkscape:zoom="0.32978946"
     inkscape:cx="794.44624"
     inkscape:cy="883.89725"
     inkscape:window-width="1920"
     inkscape:window-height="1001"
     inkscape:window-x="-9"
     inkscape:window-y="-9"
     inkscape:window-maximized="1"
     inkscape:current-layer="svg1" />
  <path
     d="m 20.752922,43.852153 v 10 h -6.23 v 6 h 6.23 v 6 h -6.23 v 6 h 6.23 v 6 h -6.23 v 6 h 6.23 v 6 h -6.23 v 5.999995 h 6.23 v 6.000002 h -6.23 v 6 h 6.23 v 6 h -6.23 v 6 h 6.23 v 6 h -6.23 v 6 h 6.23 v 6 h -6.23 v 6 h 6.23 v 6 h -6.23 v 6 h 6.23 v 6 h -6.23 v 6 h 6.23 v 6 h -6.23 v 6 h 6.23 v 6 h -6.23 v 6 h 6.23 v 6 h -6.23 v 6 h 6.23 v 6 h -6.23 v 6 h 6.23 v 6 h -6.23 v 6 h 6.23 v 6 4 h 2.607 v 3 h 6 v -3 h 6 v 3 h 6 v -3 h 6 v 3 h 6 v -3 h 6 v 3 h 6 v -3 h 6 v 3 h 6 v -3 h 6 v 3 h 6 v -3 h 6 v 3 h 5.999998 v -3 h 6 v 3 h 6 v -3 h 8.837 v -10 h -6.229 v -6 h 6.229 v -6 h -6.229 v -6 h 6.229 v -6 h -6.229 v -6 h 6.229 v -6 h -6.229 v -6 h 6.229 v -6 h -6.229 v -6 h 6.229 v -6 h -6.229 v -6 h 6.229 v -6 h -6.229 v -6 h 6.229 v -6 h -6.229 v -6 h 6.229 v -6 h -6.229 v -6 h 6.229 v -6 h -6.229 v -6 h 6.229 v -6 h -6.229 v -6 h 6.229 v -6.000002 h -6.229 v -5.999996 h 6.229 v -6 h -6.229 v -6 h 6.229 v -6 h -6.229 v -6 h 6.229 v -6 h -6.229 v -6 h 6.229 v -6 -4 h -8.837 v -3 h -6 v 3 h -6 v -3 h -5.999998 v 3 h -6 v -3 h -6 v 3 h -6 v -3 h -6 v 3 h -6 v -3 h -6 v 3 h -6 v -3 h -6 v 3 h -6 v -3 h -6 v 3 h -6 v -3 h -6 v 3 z"
     id="side0_outsideCutPath"
     stroke="#FF0000"
     stroke-width="0.1"
     style="font-size:12px;fill:none;fill-rule:evenodd;stroke:#ff0000;stroke-width:0.1;stroke-linecap:round"
     vector-effect="non-scaling-stroke" />
  <path
     d="m 593.3124,119.17308 -2.796,5.807 -2.703,-1.302 -2.603,5.406 2.702,1.302 -2.603,5.405 -2.703,-1.301 -2.603,5.406 2.703,1.301 -2.603,5.406 -2.703,-1.302 -2.604,5.406 2.703,1.302 -2.603,5.406 -2.703,-1.302 -2.603,5.406 2.703,1.301 -2.604,5.406 -2.703,-1.301 -2.603,5.405 2.703,1.302 -2.603,5.406 -2.703,-1.302 -2.603,5.406 2.702,1.302 -2.603,5.405 -2.703,-1.301 -2.603,5.406 2.703,1.301 -2.603,5.406 -2.703,-1.302 -2.604,5.406 2.703,1.302 -2.796,5.806 -6.283,1.435 -0.668,-2.925 -5.849,1.335 0.667,2.925 -5.849,1.335 -0.668,-2.925 -5.849,1.335 0.667,2.925 -5.849,1.335 -0.668,-2.925 -5.85,1.335 0.668,2.925 -5.85,1.335 -0.667,-2.925 -5.85,1.336 0.668,2.924 -5.85,1.336 -0.667,-2.925 -5.85,1.335 0.668,2.925 -5.85,1.335 -0.667,-2.925 -5.85,1.335 0.668,2.925 -5.85,1.335 -0.668,-2.925 -5.849,1.335 0.667,2.925 -5.849,1.335 -0.668,-2.925 -5.849,1.336 0.667,2.924 -6.283,1.434 -5.039,-4.018 1.871,-2.345 -4.691,-3.741 -1.871,2.345 -4.691,-3.741 1.871,-2.345 -4.691,-3.741 -1.871,2.345 -4.69,-3.74 1.87,-2.346 -4.691,-3.741 -1.87,2.346 -4.691,-3.741 1.87,-2.346 -4.691,-3.741 -1.87,2.346 -4.691,-3.741 1.87,-2.346 -4.691,-3.741 -1.87,2.346 -4.691,-3.741 1.87,-2.346 -4.691,-3.741 -1.87,2.346 -4.691,-3.741 1.87,-2.345 -4.691,-3.741 -1.87,2.345 -4.691,-3.741 1.87,-2.345 -4.691,-3.741 -1.87,2.345 -5.039,-4.018 v -6.445 h 3 v -6 h -3 v -6 h 3 v -6 h -3 v -6 h 3 v -6 h -3 v -6 h 3 v -6 h -3 v -6 h 3 v -6 h -3 v -6 h 3 v -6 h -3 v -6 h 3 v -6 h -3 v -6 h 3 v -6 h -3 v -6.444 l 5.039,-4.019 1.87,2.346 4.691,-3.741 -1.87,-2.346 4.691,-3.741 1.87,2.346 4.691,-3.741 -1.87,-2.346 4.691,-3.74 1.87,2.345 4.691,-3.741 -1.87,-2.345 4.691,-3.741 1.87,2.345 4.691,-3.741 -1.87,-2.345 4.691,-3.741 1.87,2.345 4.691,-3.741 -1.87,-2.345 4.691,-3.741 1.87,2.345 4.691,-3.741 -1.87,-2.345 4.69,-3.741 1.871,2.346 4.691,-3.741 -1.871,-2.346 4.691,-3.741 1.871,2.346 4.691,-3.741 -1.871,-2.346 5.039,-4.018 6.283,1.434 -0.667,2.925 5.849,1.335 0.668,-2.925 5.849,1.335 -0.667,2.925 5.849,1.335 0.668,-2.925 5.85,1.336 -0.668,2.924 5.85,1.335 0.667,-2.924 5.85,1.335 -0.668,2.925 5.85,1.335 0.667,-2.925 5.85,1.335 -0.668,2.925 5.85,1.335 0.667,-2.925 5.85,1.335 -0.668,2.925 5.85,1.335 0.668,-2.925 5.849,1.336 -0.667,2.924 5.849,1.336 0.668,-2.925 5.849,1.335 -0.667,2.925 5.849,1.335 0.668,-2.925 6.283,1.434 2.796,5.807 -2.703,1.301 2.604,5.406 2.703,-1.302 2.603,5.406 -2.703,1.302 2.603,5.406 2.703,-1.302 2.603,5.406 -2.702,1.301 2.603,5.406 2.703,-1.301 2.603,5.405 -2.703,1.302 2.603,5.406 2.703,-1.302 2.604,5.406 -2.703,1.302 2.603,5.406 2.703,-1.302 2.603,5.406 -2.703,1.301 2.604,5.406 2.703,-1.302 2.603,5.406 -2.703,1.302 2.603,5.406 2.703,-1.302 2.603,5.406 -2.702,1.302 2.603,5.405 2.703,-1.301 z"
     id="top_outsideCutPath"
     stroke="#FF0000"
     stroke-width="0.1"
     style="font-size:12px;fill:none;fill-rule:evenodd;stroke:#ff0000;stroke-width:0.1;stroke-linecap:round"
     vector-effect="non-scaling-stroke" />
  <path
     d="m 359.04678,119.90074 -2.796,5.806 -2.703,-1.301 -2.603,5.405 2.702,1.302 -2.603,5.406 -2.703,-1.302 -2.603,5.406 2.703,1.302 -2.603,5.405 -2.703,-1.301 -2.604,5.406 2.703,1.301 -2.603,5.406 -2.703,-1.302 -2.603,5.406 2.703,1.302 -2.604,5.406 -2.703,-1.302 -2.603,5.406 2.703,1.302 -2.603,5.405 -2.703,-1.301 -2.603,5.406 2.702,1.301 -2.603,5.406 -2.703,-1.302 -2.603,5.406 2.703,1.302 -2.603,5.406 -2.703,-1.302 -2.604,5.406 2.703,1.301 -2.796,5.807 -6.283,1.434 -0.668,-2.925 -5.849,1.335 0.667,2.925 -5.849,1.335 -0.668,-2.925 -5.849,1.336 0.667,2.924 -5.849,1.336 -0.668,-2.925 -5.85,1.335 0.668,2.925 -5.85,1.335 -0.667,-2.925 -5.85,1.335 0.668,2.925 -5.85,1.335 -0.667,-2.925 -5.85,1.335 0.668,2.925 -5.85,1.335 -0.667,-2.925 -5.85,1.336 0.668,2.924 -5.85,1.336 -0.668,-2.925 -5.849,1.335 0.667,2.925 -5.849,1.335 -0.668,-2.925 -5.849,1.335 0.667,2.925 -6.283,1.434 -5.039,-4.018 1.871,-2.346 -4.691,-3.741 -1.871,2.346 -4.691,-3.741 1.871,-2.346 -4.691,-3.741 -1.871,2.346 -4.69,-3.741 1.87,-2.345 -4.691,-3.741 -1.87,2.345 -4.691,-3.741 1.87,-2.345 -4.691,-3.741 -1.87,2.345 -4.691,-3.741 1.87,-2.345 -4.691,-3.741 -1.87,2.345 -4.691,-3.741 1.87,-2.345 -4.691,-3.741 -1.87,2.345 -4.691,-3.741 1.87,-2.345 -4.691,-3.741 -1.87,2.346 -4.691,-3.741 1.87,-2.346 -4.691,-3.741 -1.87,2.346 -5.039,-4.019 v -6.444 h 3 v -6 h -3 v -6 h 3 v -6 h -3 v -6 h 3 v -6 h -3 v -6 h 3 v -6 h -3 v -6 h 3 v -6 h -3 v -6 h 3 v -6 h -3 v -6 h 3 v -6 h -3 v -6 h 3 v -6 h -3 v -6.445 l 5.039,-4.018 1.87,2.345 4.691,-3.741 -1.87,-2.345 4.691,-3.741 1.87,2.345 4.691,-3.741 -1.87,-2.345 4.691,-3.741 1.87,2.346 4.691,-3.741 -1.87,-2.346 4.691,-3.741 1.87,2.346 4.691,-3.741 -1.87,-2.346 4.691,-3.741 1.87,2.346 4.691,-3.741 -1.87,-2.346 4.691,-3.741 1.87,2.346 4.691,-3.741 -1.87,-2.346 4.69,-3.74 1.871,2.345 4.691,-3.741 -1.871,-2.345 4.691,-3.741 1.871,2.345 4.691,-3.741 -1.871,-2.3450002 5.039,-4.019 6.283,1.435 -0.667,2.924 5.849,1.335 0.668,-2.924 5.849,1.335 -0.667,2.9250002 5.849,1.335 0.668,-2.9250002 5.85,1.3350002 -0.668,2.925 5.85,1.335 0.667,-2.925 5.85,1.335 -0.668,2.925 5.85,1.335 0.667,-2.925 5.85,1.336 -0.668,2.924 5.85,1.335 0.667,-2.924 5.85,1.335 -0.668,2.925 5.85,1.335 0.668,-2.925 5.849,1.335 -0.667,2.925 5.849,1.335 0.668,-2.925 5.849,1.335 -0.667,2.925 5.849,1.335 0.668,-2.925 6.283,1.435 2.796,5.806 -2.703,1.302 2.604,5.406 2.703,-1.302 2.603,5.406 -2.703,1.301 2.603,5.406 2.703,-1.302 2.603,5.406 -2.702,1.302 2.603,5.406 2.703,-1.302 2.603,5.406 -2.703,1.302 2.603,5.405 2.703,-1.301 2.604,5.406 -2.703,1.301 2.603,5.406 2.703,-1.302 2.603,5.406 -2.703,1.302 2.604,5.406 2.703,-1.302 2.603,5.406 -2.703,1.301 2.603,5.406 2.703,-1.301 2.603,5.405 -2.702,1.302 2.603,5.406 2.703,-1.302 z"
     id="bottom_outsideCutPath"
     stroke="#FF0000"
     stroke-width="0.1"
     style="font-size:12px;fill:none;fill-rule:evenodd;stroke:#ff0000;stroke-width:0.1;stroke-linecap:round"
     vector-effect="non-scaling-stroke" />
  <circle
     style="fill:none;fill-opacity:0.7014;stroke:#ff0000;stroke-width:0.1;stroke-opacity:1"
     id="path1"
     cx="237.52745"
     cy="123.91164"
     r="17.65015" />
  <path
     sodipodi:type="star"
     style="fill:none;fill-opacity:0.7014;stroke:#ff0000;stroke-width:0.160117;stroke-dasharray:none;stroke-opacity:1"
     id="path1-33"
     inkscape:flatsided="false"
     sodipodi:sides="5"
     sodipodi:cx="22.901583"
     sodipodi:cy="241.59557"
     sodipodi:r1="6.9779854"
     sodipodi:r2="3.4889927"
     sodipodi:arg1="0.98279372"
     sodipodi:arg2="1.6111123"
     inkscape:rounded="0"
     inkscape:randomized="0"
     d="m 26.772273,247.4016 -4.011314,-2.31988 -4.185135,1.98925 0.966771,-4.53186 -3.185168,-3.36559 4.608811,-0.48097 2.216592,-4.0693 1.881632,4.23461 4.555097,0.85062 -3.445899,3.09811 z"
     inkscape:transform-center-x="-0.057485389"
     inkscape:transform-center-y="-0.34387969"
     transform="matrix(0.66143766,0,0,0.58970801,91.260239,-36.113592)" />
  <path
     sodipodi:type="star"
     style="fill:none;fill-opacity:0.7014;stroke:#ff0000;stroke-width:0.160117;stroke-dasharray:none;stroke-opacity:1"
     id="path1-42"
     inkscape:flatsided="false"
     sodipodi:sides="5"
     sodipodi:cx="22.901583"
     sodipodi:cy="241.59557"
     sodipodi:r1="6.9779854"
     sodipodi:r2="3.4889927"
     sodipodi:arg1="0.98279372"
     sodipodi:arg2="1.6111123"
     inkscape:rounded="0"
     inkscape:randomized="0"
     d="m 26.772273,247.4016 -4.011314,-2.31988 -4.185135,1.98925 0.966771,-4.53186 -3.185168,-3.36559 4.608811,-0.48097 2.216592,-4.0693 1.881632,4.23461 4.555097,0.85062 -3.445899,3.09811 z"
     inkscape:transform-center-x="-0.057485389"
     inkscape:transform-center-y="-0.34387969"
     transform="matrix(0.66143766,0,0,0.58970801,52.048365,-43.266602)" />
  <path
     sodipodi:type="star"
     style="fill:none;fill-opacity:0.7014;stroke:#ff0000;stroke-width:0.160117;stroke-dasharray:none;stroke-opacity:1"
     id="path1-86"
     inkscape:flatsided="false"
     sodipodi:sides="5"
     sodipodi:cx="22.901583"
     sodipodi:cy="241.59557"
     sodipodi:r1="6.9779854"
     sodipodi:r2="3.4889927"
     sodipodi:arg1="0.98279372"
     sodipodi:arg2="1.6111123"
     inkscape:rounded="0"
     inkscape:randomized="0"
     d="m 26.772273,247.4016 -4.011314,-2.31988 -4.185135,1.98925 0.966771,-4.53186 -3.185168,-3.36559 4.608811,-0.48097 2.216592,-4.0693 1.881632,4.23461 4.555097,0.85062 -3.445899,3.09811 z"
     inkscape:transform-center-x="-0.057485389"
     inkscape:transform-center-y="-0.34387969"
     transform="matrix(0.66143766,0,0,0.58970801,82.674655,-49.699862)" />
  <path
     sodipodi:type="star"
     style="fill:none;fill-opacity:0.7014;stroke:#ff0000;stroke-width:0.160117;stroke-dasharray:none;stroke-opacity:1"
     id="path1-79"
     inkscape:flatsided="false"
     sodipodi:sides="5"
     sodipodi:cx="22.901583"
     sodipodi:cy="241.59557"
     sodipodi:r1="6.9779854"
     sodipodi:r2="3.4889927"
     sodipodi:arg1="0.98279372"
     sodipodi:arg2="1.6111123"
     inkscape:rounded="0"
     inkscape:randomized="0"
     d="m 26.772273,247.4016 -4.011314,-2.31988 -4.185135,1.98925 0.966771,-4.53186 -3.185168,-3.36559 4.608811,-0.48097 2.216592,-4.0693 1.881632,4.23461 4.555097,0.85062 -3.445899,3.09811 z"
     inkscape:transform-center-x="-0.057485389"
     inkscape:transform-center-y="-0.34387969"
     transform="matrix(0.66143766,0,0,0.58970801,16.988305,-50.948132)" />
  <path
     sodipodi:type="star"
     style="fill:none;fill-opacity:0.7014;stroke:#ff0000;stroke-width:0.160117;stroke-dasharray:none;stroke-opacity:1"
     id="path1-18"
     inkscape:flatsided="false"
     sodipodi:sides="5"
     sodipodi:cx="22.901583"
     sodipodi:cy="241.59557"
     sodipodi:r1="6.9779854"
     sodipodi:r2="3.4889927"
     sodipodi:arg1="0.98279372"
     sodipodi:arg2="1.6111123"
     inkscape:rounded="0"
     inkscape:randomized="0"
     d="m 26.772273,247.4016 -4.011314,-2.31988 -4.185135,1.98925 0.966771,-4.53186 -3.185168,-3.36559 4.608811,-0.48097 2.216592,-4.0693 1.881632,4.23461 4.555097,0.85062 -3.445899,3.09811 z"
     inkscape:transform-center-x="-0.057485389"
     inkscape:transform-center-y="-0.34387969"
     transform="matrix(0.66143766,0,0,0.58970801,39.279895,-62.313512)" />
  <path
     sodipodi:type="star"
     style="fill:none;fill-opacity:0.7014;stroke:#ff0000;stroke-width:0.160117;stroke-dasharray:none;stroke-opacity:1"
     id="path1-96"
     inkscape:flatsided="false"
     sodipodi:sides="5"
     sodipodi:cx="22.901583"
     sodipodi:cy="241.59557"
     sodipodi:r1="6.9779854"
     sodipodi:r2="3.4889927"
     sodipodi:arg1="0.98279372"
     sodipodi:arg2="1.6111123"
     inkscape:rounded="0"
     inkscape:randomized="0"
     d="m 26.772273,247.4016 -4.011314,-2.31988 -4.185135,1.98925 0.966771,-4.53186 -3.185168,-3.36559 4.608811,-0.48097 2.216592,-4.0693 1.881632,4.23461 4.555097,0.85062 -3.445899,3.09811 z"
     inkscape:transform-center-x="-0.057485389"
     inkscape:transform-center-y="-0.34387969"
     transform="matrix(0.66143766,0,0,0.58970801,63.165165,-59.831112)" />
  <path
     sodipodi:type="star"
     style="fill:none;fill-opacity:0.7014;stroke:#ff0000;stroke-width:0.160117;stroke-dasharray:none;stroke-opacity:1"
     id="path1-14"
     inkscape:flatsided="false"
     sodipodi:sides="5"
     sodipodi:cx="22.901583"
     sodipodi:cy="241.59557"
     sodipodi:r1="6.9779854"
     sodipodi:r2="3.4889927"
     sodipodi:arg1="0.98279372"
     sodipodi:arg2="1.6111123"
     inkscape:rounded="0"
     inkscape:randomized="0"
     d="m 26.772273,247.4016 -4.011314,-2.31988 -4.185135,1.98925 0.966771,-4.53186 -3.185168,-3.36559 4.608811,-0.48097 2.216592,-4.0693 1.881632,4.23461 4.555097,0.85062 -3.445899,3.09811 z"
     inkscape:transform-center-x="-0.057485389"
     inkscape:transform-center-y="-0.34387969"
     transform="matrix(0.66143766,0,0,0.58970801,64.194304,-83.65333)" />
  <path
     sodipodi:type="star"
     style="fill:none;fill-opacity:0.7014;stroke:#ff0000;stroke-width:0.160117;stroke-dasharray:none;stroke-opacity:1"
     id="path1-74"
     inkscape:flatsided="false"
     sodipodi:sides="5"
     sodipodi:cx="22.901583"
     sodipodi:cy="241.59557"
     sodipodi:r1="6.9779854"
     sodipodi:r2="3.4889927"
     sodipodi:arg1="0.98279372"
     sodipodi:arg2="1.6111123"
     inkscape:rounded="0"
     inkscape:randomized="0"
     d="m 26.772273,247.4016 -4.011314,-2.31988 -4.185135,1.98925 0.966771,-4.53186 -3.185168,-3.36559 4.608811,-0.48097 2.216592,-4.0693 1.881632,4.23461 4.555097,0.85062 -3.445899,3.09811 z"
     inkscape:transform-center-x="-0.057485389"
     inkscape:transform-center-y="-0.34387969"
     transform="matrix(0.66143766,0,0,0.58970801,34.530552,-80.361437)" />
  <path
     sodipodi:type="star"
     style="fill:none;fill-opacity:0.7014;stroke:#ff0000;stroke-width:0.160117;stroke-dasharray:none;stroke-opacity:1"
     id="path1-43"
     inkscape:flatsided="false"
     sodipodi:sides="5"
     sodipodi:cx="22.901583"
     sodipodi:cy="241.59557"
     sodipodi:r1="6.9779854"
     sodipodi:r2="3.4889927"
     sodipodi:arg1="0.98279372"
     sodipodi:arg2="1.6111123"
     inkscape:rounded="0"
     inkscape:randomized="0"
     d="m 26.772273,247.4016 -4.011314,-2.31988 -4.185135,1.98925 0.966771,-4.53186 -3.185168,-3.36559 4.608811,-0.48097 2.216592,-4.0693 1.881632,4.23461 4.555097,0.85062 -3.445899,3.09811 z"
     inkscape:transform-center-x="-0.057485389"
     inkscape:transform-center-y="-0.34387969"
     transform="matrix(0.66143766,0,0,0.58970801,68.641245,-35.532622)" />
  <path
     sodipodi:type="star"
     style="fill:none;fill-opacity:0.7014;stroke:#ff0000;stroke-width:0.160117;stroke-dasharray:none;stroke-opacity:1"
     id="path1-432"
     inkscape:flatsided="false"
     sodipodi:sides="5"
     sodipodi:cx="22.901583"
     sodipodi:cy="241.59557"
     sodipodi:r1="6.9779854"
     sodipodi:r2="3.4889927"
     sodipodi:arg1="0.98279372"
     sodipodi:arg2="1.6111123"
     inkscape:rounded="0"
     inkscape:randomized="0"
     d="m 26.772273,247.4016 -4.011314,-2.31988 -4.185135,1.98925 0.966771,-4.53186 -3.185168,-3.36559 4.608811,-0.48097 2.216592,-4.0693 1.881632,4.23461 4.555097,0.85062 -3.445899,3.09811 z"
     inkscape:transform-center-x="-0.057485389"
     inkscape:transform-center-y="-0.34387969"
     transform="matrix(0.66143766,0,0,0.58970801,33.404175,-40.262432)" />
  <path
     sodipodi:type="star"
     style="fill:none;fill-opacity:0.7014;stroke:#ff0000;stroke-width:0.160117;stroke-dasharray:none;stroke-opacity:1"
     id="path1-334"
     inkscape:flatsided="false"
     sodipodi:sides="5"
     sodipodi:cx="22.901583"
     sodipodi:cy="241.59557"
     sodipodi:r1="6.9779854"
     sodipodi:r2="3.4889927"
     sodipodi:arg1="0.98279372"
     sodipodi:arg2="1.6111123"
     inkscape:rounded="0"
     inkscape:randomized="0"
     d="m 26.772273,247.4016 -4.011314,-2.31988 -4.185135,1.98925 0.966771,-4.53186 -3.185168,-3.36559 4.608811,-0.48097 2.216592,-4.0693 1.881632,4.23461 4.555097,0.85062 -3.445899,3.09811 z"
     inkscape:transform-center-x="-0.057485389"
     inkscape:transform-center-y="-0.34387969"
     transform="matrix(0.66143766,0,0,0.58970801,19.339523,-66.914144)" />
  <path
     sodipodi:type="star"
     style="fill:none;fill-opacity:0.7014;stroke:#ff0000;stroke-width:0.160117;stroke-dasharray:none;stroke-opacity:1"
     id="path1-60"
     inkscape:flatsided="false"
     sodipodi:sides="5"
     sodipodi:cx="22.901583"
     sodipodi:cy="241.59557"
     sodipodi:r1="6.9779854"
     sodipodi:r2="3.4889927"
     sodipodi:arg1="0.98279372"
     sodipodi:arg2="1.6111123"
     inkscape:rounded="0"
     inkscape:randomized="0"
     d="m 26.772273,247.4016 -4.011314,-2.31988 -4.185135,1.98925 0.966771,-4.53186 -3.185168,-3.36559 4.608811,-0.48097 2.216592,-4.0693 1.881632,4.23461 4.555097,0.85062 -3.445899,3.09811 z"
     inkscape:transform-center-x="-0.057485389"
     inkscape:transform-center-y="-0.34387969"
     transform="matrix(0.66143766,0,0,0.58970801,80.837365,-68.485282)" />
  <path
     sodipodi:type="star"
     style="fill:none;fill-opacity:0.7014;stroke:#ff0000;stroke-width:0.160117;stroke-dasharray:none;stroke-opacity:1"
     id="path1-33-1"
     inkscape:flatsided="false"
     sodipodi:sides="5"
     sodipodi:cx="22.901583"
     sodipodi:cy="241.59557"
     sodipodi:r1="6.9779854"
     sodipodi:r2="3.4889927"
     sodipodi:arg1="0.98279372"
     sodipodi:arg2="1.6111123"
     inkscape:rounded="0"
     inkscape:randomized="0"
     d="m 26.772273,247.4016 -4.011314,-2.31988 -4.185135,1.98925 0.966771,-4.53186 -3.185168,-3.36559 4.608811,-0.48097 2.216592,-4.0693 1.881632,4.23461 4.555097,0.85062 -3.445899,3.09811 z"
     inkscape:transform-center-x="-0.057485389"
     inkscape:transform-center-y="-0.34387969"
     transform="matrix(0.66143766,0,0,0.58970801,90.842738,28.050746)" />
  <path
     sodipodi:type="star"
     style="fill:none;fill-opacity:0.7014;stroke:#ff0000;stroke-width:0.160117;stroke-dasharray:none;stroke-opacity:1"
     id="path1-42-7"
     inkscape:flatsided="false"
     sodipodi:sides="5"
     sodipodi:cx="22.901583"
     sodipodi:cy="241.59557"
     sodipodi:r1="6.9779854"
     sodipodi:r2="3.4889927"
     sodipodi:arg1="0.98279372"
     sodipodi:arg2="1.6111123"
     inkscape:rounded="0"
     inkscape:randomized="0"
     d="m 26.772273,247.4016 -4.011314,-2.31988 -4.185135,1.98925 0.966771,-4.53186 -3.185168,-3.36559 4.608811,-0.48097 2.216592,-4.0693 1.881632,4.23461 4.555097,0.85062 -3.445899,3.09811 z"
     inkscape:transform-center-x="-0.057485389"
     inkscape:transform-center-y="-0.34387969"
     transform="matrix(0.66143766,0,0,0.58970801,51.630861,20.897736)" />
  <path
     sodipodi:type="star"
     style="fill:none;fill-opacity:0.7014;stroke:#ff0000;stroke-width:0.160117;stroke-dasharray:none;stroke-opacity:1"
     id="path1-86-5"
     inkscape:flatsided="false"
     sodipodi:sides="5"
     sodipodi:cx="22.901583"
     sodipodi:cy="241.59557"
     sodipodi:r1="6.9779854"
     sodipodi:r2="3.4889927"
     sodipodi:arg1="0.98279372"
     sodipodi:arg2="1.6111123"
     inkscape:rounded="0"
     inkscape:randomized="0"
     d="m 26.772273,247.4016 -4.011314,-2.31988 -4.185135,1.98925 0.966771,-4.53186 -3.185168,-3.36559 4.608811,-0.48097 2.216592,-4.0693 1.881632,4.23461 4.555097,0.85062 -3.445899,3.09811 z"
     inkscape:transform-center-x="-0.057485389"
     inkscape:transform-center-y="-0.34387969"
     transform="matrix(0.66143766,0,0,0.58970801,82.257148,14.464476)" />
  <path
     sodipodi:type="star"
     style="fill:none;fill-opacity:0.7014;stroke:#ff0000;stroke-width:0.160117;stroke-dasharray:none;stroke-opacity:1"
     id="path1-79-5"
     inkscape:flatsided="false"
     sodipodi:sides="5"
     sodipodi:cx="22.901583"
     sodipodi:cy="241.59557"
     sodipodi:r1="6.9779854"
     sodipodi:r2="3.4889927"
     sodipodi:arg1="0.98279372"
     sodipodi:arg2="1.6111123"
     inkscape:rounded="0"
     inkscape:randomized="0"
     d="m 26.772273,247.4016 -4.011314,-2.31988 -4.185135,1.98925 0.966771,-4.53186 -3.185168,-3.36559 4.608811,-0.48097 2.216592,-4.0693 1.881632,4.23461 4.555097,0.85062 -3.445899,3.09811 z"
     inkscape:transform-center-x="-0.057485389"
     inkscape:transform-center-y="-0.34387969"
     transform="matrix(0.66143766,0,0,0.58970801,16.570801,13.216206)" />
  <path
     sodipodi:type="star"
     style="fill:none;fill-opacity:0.7014;stroke:#ff0000;stroke-width:0.160117;stroke-dasharray:none;stroke-opacity:1"
     id="path1-18-9"
     inkscape:flatsided="false"
     sodipodi:sides="5"
     sodipodi:cx="22.901583"
     sodipodi:cy="241.59557"
     sodipodi:r1="6.9779854"
     sodipodi:r2="3.4889927"
     sodipodi:arg1="0.98279372"
     sodipodi:arg2="1.6111123"
     inkscape:rounded="0"
     inkscape:randomized="0"
     d="m 26.772273,247.4016 -4.011314,-2.31988 -4.185135,1.98925 0.966771,-4.53186 -3.185168,-3.36559 4.608811,-0.48097 2.216592,-4.0693 1.881632,4.23461 4.555097,0.85062 -3.445899,3.09811 z"
     inkscape:transform-center-x="-0.057485389"
     inkscape:transform-center-y="-0.34387969"
     transform="matrix(0.66143766,0,0,0.58970801,38.862391,1.850826)" />
  <path
     sodipodi:type="star"
     style="fill:none;fill-opacity:0.7014;stroke:#ff0000;stroke-width:0.160117;stroke-dasharray:none;stroke-opacity:1"
     id="path1-96-8"
     inkscape:flatsided="false"
     sodipodi:sides="5"
     sodipodi:cx="22.901583"
     sodipodi:cy="241.59557"
     sodipodi:r1="6.9779854"
     sodipodi:r2="3.4889927"
     sodipodi:arg1="0.98279372"
     sodipodi:arg2="1.6111123"
     inkscape:rounded="0"
     inkscape:randomized="0"
     d="m 26.772273,247.4016 -4.011314,-2.31988 -4.185135,1.98925 0.966771,-4.53186 -3.185168,-3.36559 4.608811,-0.48097 2.216592,-4.0693 1.881632,4.23461 4.555097,0.85062 -3.445899,3.09811 z"
     inkscape:transform-center-x="-0.057485389"
     inkscape:transform-center-y="-0.34387969"
     transform="matrix(0.66143766,0,0,0.58970801,62.747658,4.333226)" />
  <path
     sodipodi:type="star"
     style="fill:none;fill-opacity:0.7014;stroke:#ff0000;stroke-width:0.160117;stroke-dasharray:none;stroke-opacity:1"
     id="path1-14-5"
     inkscape:flatsided="false"
     sodipodi:sides="5"
     sodipodi:cx="22.901583"
     sodipodi:cy="241.59557"
     sodipodi:r1="6.9779854"
     sodipodi:r2="3.4889927"
     sodipodi:arg1="0.98279372"
     sodipodi:arg2="1.6111123"
     inkscape:rounded="0"
     inkscape:randomized="0"
     d="m 26.772273,247.4016 -4.011314,-2.31988 -4.185135,1.98925 0.966771,-4.53186 -3.185168,-3.36559 4.608811,-0.48097 2.216592,-4.0693 1.881632,4.23461 4.555097,0.85062 -3.445899,3.09811 z"
     inkscape:transform-center-x="-0.057485389"
     inkscape:transform-center-y="-0.34387969"
     transform="matrix(0.66143766,0,0,0.58970801,63.776798,-19.488992)" />
  <path
     sodipodi:type="star"
     style="fill:none;fill-opacity:0.7014;stroke:#ff0000;stroke-width:0.160117;stroke-dasharray:none;stroke-opacity:1"
     id="path1-74-2"
     inkscape:flatsided="false"
     sodipodi:sides="5"
     sodipodi:cx="22.901583"
     sodipodi:cy="241.59557"
     sodipodi:r1="6.9779854"
     sodipodi:r2="3.4889927"
     sodipodi:arg1="0.98279372"
     sodipodi:arg2="1.6111123"
     inkscape:rounded="0"
     inkscape:randomized="0"
     d="m 26.772273,247.4016 -4.011314,-2.31988 -4.185135,1.98925 0.966771,-4.53186 -3.185168,-3.36559 4.608811,-0.48097 2.216592,-4.0693 1.881632,4.23461 4.555097,0.85062 -3.445899,3.09811 z"
     inkscape:transform-center-x="-0.057485389"
     inkscape:transform-center-y="-0.34387969"
     transform="matrix(0.66143766,0,0,0.58970801,34.113048,-16.197099)" />
  <path
     sodipodi:type="star"
     style="fill:none;fill-opacity:0.7014;stroke:#ff0000;stroke-width:0.160117;stroke-dasharray:none;stroke-opacity:1"
     id="path1-43-0"
     inkscape:flatsided="false"
     sodipodi:sides="5"
     sodipodi:cx="22.901583"
     sodipodi:cy="241.59557"
     sodipodi:r1="6.9779854"
     sodipodi:r2="3.4889927"
     sodipodi:arg1="0.98279372"
     sodipodi:arg2="1.6111123"
     inkscape:rounded="0"
     inkscape:randomized="0"
     d="m 26.772273,247.4016 -4.011314,-2.31988 -4.185135,1.98925 0.966771,-4.53186 -3.185168,-3.36559 4.608811,-0.48097 2.216592,-4.0693 1.881632,4.23461 4.555097,0.85062 -3.445899,3.09811 z"
     inkscape:transform-center-x="-0.057485389"
     inkscape:transform-center-y="-0.34387969"
     transform="matrix(0.66143766,0,0,0.58970801,68.223738,28.631716)" />
  <path
     sodipodi:type="star"
     style="fill:none;fill-opacity:0.7014;stroke:#ff0000;stroke-width:0.160117;stroke-dasharray:none;stroke-opacity:1"
     id="path1-432-7"
     inkscape:flatsided="false"
     sodipodi:sides="5"
     sodipodi:cx="22.901583"
     sodipodi:cy="241.59557"
     sodipodi:r1="6.9779854"
     sodipodi:r2="3.4889927"
     sodipodi:arg1="0.98279372"
     sodipodi:arg2="1.6111123"
     inkscape:rounded="0"
     inkscape:randomized="0"
     d="m 26.772273,247.4016 -4.011314,-2.31988 -4.185135,1.98925 0.966771,-4.53186 -3.185168,-3.36559 4.608811,-0.48097 2.216592,-4.0693 1.881632,4.23461 4.555097,0.85062 -3.445899,3.09811 z"
     inkscape:transform-center-x="-0.057485389"
     inkscape:transform-center-y="-0.34387969"
     transform="matrix(0.66143766,0,0,0.58970801,32.986671,23.901906)" />
  <path
     sodipodi:type="star"
     style="fill:none;fill-opacity:0.7014;stroke:#ff0000;stroke-width:0.160117;stroke-dasharray:none;stroke-opacity:1"
     id="path1-334-2"
     inkscape:flatsided="false"
     sodipodi:sides="5"
     sodipodi:cx="22.901583"
     sodipodi:cy="241.59557"
     sodipodi:r1="6.9779854"
     sodipodi:r2="3.4889927"
     sodipodi:arg1="0.98279372"
     sodipodi:arg2="1.6111123"
     inkscape:rounded="0"
     inkscape:randomized="0"
     d="m 26.772273,247.4016 -4.011314,-2.31988 -4.185135,1.98925 0.966771,-4.53186 -3.185168,-3.36559 4.608811,-0.48097 2.216592,-4.0693 1.881632,4.23461 4.555097,0.85062 -3.445899,3.09811 z"
     inkscape:transform-center-x="-0.057485389"
     inkscape:transform-center-y="-0.34387969"
     transform="matrix(0.66143766,0,0,0.58970801,18.922019,-2.749806)" />
  <path
     sodipodi:type="star"
     style="fill:none;fill-opacity:0.7014;stroke:#ff0000;stroke-width:0.160117;stroke-dasharray:none;stroke-opacity:1"
     id="path1-60-8"
     inkscape:flatsided="false"
     sodipodi:sides="5"
     sodipodi:cx="22.901583"
     sodipodi:cy="241.59557"
     sodipodi:r1="6.9779854"
     sodipodi:r2="3.4889927"
     sodipodi:arg1="0.98279372"
     sodipodi:arg2="1.6111123"
     inkscape:rounded="0"
     inkscape:randomized="0"
     d="m 26.772273,247.4016 -4.011314,-2.31988 -4.185135,1.98925 0.966771,-4.53186 -3.185168,-3.36559 4.608811,-0.48097 2.216592,-4.0693 1.881632,4.23461 4.555097,0.85062 -3.445899,3.09811 z"
     inkscape:transform-center-x="-0.057485389"
     inkscape:transform-center-y="-0.34387969"
     transform="matrix(0.66143766,0,0,0.58970801,80.419858,-4.320944)" />
  <path
     sodipodi:type="star"
     style="fill:none;fill-opacity:0.7014;stroke:#ff0000;stroke-width:0.160117;stroke-dasharray:none;stroke-opacity:1"
     id="path1-33-3"
     inkscape:flatsided="false"
     sodipodi:sides="5"
     sodipodi:cx="22.901583"
     sodipodi:cy="241.59557"
     sodipodi:r1="6.9779854"
     sodipodi:r2="3.4889927"
     sodipodi:arg1="0.98279372"
     sodipodi:arg2="1.6111123"
     inkscape:rounded="0"
     inkscape:randomized="0"
     d="m 26.772273,247.4016 -4.011314,-2.31988 -4.185135,1.98925 0.966771,-4.53186 -3.185168,-3.36559 4.608811,-0.48097 2.216592,-4.0693 1.881632,4.23461 4.555097,0.85062 -3.445899,3.09811 z"
     inkscape:transform-center-x="-0.057485389"
     inkscape:transform-center-y="-0.34387969"
     transform="matrix(0.66143766,0,0,0.58970801,18.040515,35.323788)" />
  <path
     sodipodi:type="star"
     style="fill:none;fill-opacity:0.7014;stroke:#ff0000;stroke-width:0.160117;stroke-dasharray:none;stroke-opacity:1"
     id="path1-42-3"
     inkscape:flatsided="false"
     sodipodi:sides="5"
     sodipodi:cx="22.901583"
     sodipodi:cy="241.59557"
     sodipodi:r1="6.9779854"
     sodipodi:r2="3.4889927"
     sodipodi:arg1="0.98279372"
     sodipodi:arg2="1.6111123"
     inkscape:rounded="0"
     inkscape:randomized="0"
     d="m 26.772273,247.4016 -4.011314,-2.31988 -4.185135,1.98925 0.966771,-4.53186 -3.185168,-3.36559 4.608811,-0.48097 2.216592,-4.0693 1.881632,4.23461 4.555097,0.85062 -3.445899,3.09811 z"
     inkscape:transform-center-x="-0.057485389"
     inkscape:transform-center-y="-0.34387969"
     transform="matrix(0.66143766,0,0,0.58970801,50.231512,81.121227)" />
  <path
     sodipodi:type="star"
     style="fill:none;fill-opacity:0.7014;stroke:#ff0000;stroke-width:0.160117;stroke-dasharray:none;stroke-opacity:1"
     id="path1-86-4"
     inkscape:flatsided="false"
     sodipodi:sides="5"
     sodipodi:cx="22.901583"
     sodipodi:cy="241.59557"
     sodipodi:r1="6.9779854"
     sodipodi:r2="3.4889927"
     sodipodi:arg1="0.98279372"
     sodipodi:arg2="1.6111123"
     inkscape:rounded="0"
     inkscape:randomized="0"
     d="m 26.772273,247.4016 -4.011314,-2.31988 -4.185135,1.98925 0.966771,-4.53186 -3.185168,-3.36559 4.608811,-0.48097 2.216592,-4.0693 1.881632,4.23461 4.555097,0.85062 -3.445899,3.09811 z"
     inkscape:transform-center-x="-0.057485389"
     inkscape:transform-center-y="-0.34387969"
     transform="matrix(0.66143766,0,0,0.58970801,19.082279,-23.190134)" />
  <path
     sodipodi:type="star"
     style="fill:none;fill-opacity:0.7014;stroke:#ff0000;stroke-width:0.160117;stroke-dasharray:none;stroke-opacity:1"
     id="path1-79-9"
     inkscape:flatsided="false"
     sodipodi:sides="5"
     sodipodi:cx="22.901583"
     sodipodi:cy="241.59557"
     sodipodi:r1="6.9779854"
     sodipodi:r2="3.4889927"
     sodipodi:arg1="0.98279372"
     sodipodi:arg2="1.6111123"
     inkscape:rounded="0"
     inkscape:randomized="0"
     d="m 26.772273,247.4016 -4.011314,-2.31988 -4.185135,1.98925 0.966771,-4.53186 -3.185168,-3.36559 4.608811,-0.48097 2.216592,-4.0693 1.881632,4.23461 4.555097,0.85062 -3.445899,3.09811 z"
     inkscape:transform-center-x="-0.057485389"
     inkscape:transform-center-y="-0.34387969"
     transform="matrix(0.66143766,0,0,0.58970801,15.171452,73.439697)" />
  <path
     sodipodi:type="star"
     style="fill:none;fill-opacity:0.7014;stroke:#ff0000;stroke-width:0.160117;stroke-dasharray:none;stroke-opacity:1"
     id="path1-18-0"
     inkscape:flatsided="false"
     sodipodi:sides="5"
     sodipodi:cx="22.901583"
     sodipodi:cy="241.59557"
     sodipodi:r1="6.9779854"
     sodipodi:r2="3.4889927"
     sodipodi:arg1="0.98279372"
     sodipodi:arg2="1.6111123"
     inkscape:rounded="0"
     inkscape:randomized="0"
     d="m 26.772273,247.4016 -4.011314,-2.31988 -4.185135,1.98925 0.966771,-4.53186 -3.185168,-3.36559 4.608811,-0.48097 2.216592,-4.0693 1.881632,4.23461 4.555097,0.85062 -3.445899,3.09811 z"
     inkscape:transform-center-x="-0.057485389"
     inkscape:transform-center-y="-0.34387969"
     transform="matrix(0.66143766,0,0,0.58970801,37.463042,62.074317)" />
  <path
     sodipodi:type="star"
     style="fill:none;fill-opacity:0.7014;stroke:#ff0000;stroke-width:0.160117;stroke-dasharray:none;stroke-opacity:1"
     id="path1-96-7"
     inkscape:flatsided="false"
     sodipodi:sides="5"
     sodipodi:cx="22.901583"
     sodipodi:cy="241.59557"
     sodipodi:r1="6.9779854"
     sodipodi:r2="3.4889927"
     sodipodi:arg1="0.98279372"
     sodipodi:arg2="1.6111123"
     inkscape:rounded="0"
     inkscape:randomized="0"
     d="m 26.772273,247.4016 -4.011314,-2.31988 -4.185135,1.98925 0.966771,-4.53186 -3.185168,-3.36559 4.608811,-0.48097 2.216592,-4.0693 1.881632,4.23461 4.555097,0.85062 -3.445899,3.09811 z"
     inkscape:transform-center-x="-0.057485389"
     inkscape:transform-center-y="-0.34387969"
     transform="matrix(0.66143766,0,0,0.58970801,61.348312,64.556717)" />
  <path
     sodipodi:type="star"
     style="fill:none;fill-opacity:0.7014;stroke:#ff0000;stroke-width:0.160117;stroke-dasharray:none;stroke-opacity:1"
     id="path1-14-7"
     inkscape:flatsided="false"
     sodipodi:sides="5"
     sodipodi:cx="22.901583"
     sodipodi:cy="241.59557"
     sodipodi:r1="6.9779854"
     sodipodi:r2="3.4889927"
     sodipodi:arg1="0.98279372"
     sodipodi:arg2="1.6111123"
     inkscape:rounded="0"
     inkscape:randomized="0"
     d="m 26.772273,247.4016 -4.011314,-2.31988 -4.185135,1.98925 0.966771,-4.53186 -3.185168,-3.36559 4.608811,-0.48097 2.216592,-4.0693 1.881632,4.23461 4.555097,0.85062 -3.445899,3.09811 z"
     inkscape:transform-center-x="-0.057485389"
     inkscape:transform-center-y="-0.34387969"
     transform="matrix(0.66143766,0,0,0.58970801,53.552377,45.548174)" />
  <path
     sodipodi:type="star"
     style="fill:none;fill-opacity:0.7014;stroke:#ff0000;stroke-width:0.160117;stroke-dasharray:none;stroke-opacity:1"
     id="path1-74-0"
     inkscape:flatsided="false"
     sodipodi:sides="5"
     sodipodi:cx="22.901583"
     sodipodi:cy="241.59557"
     sodipodi:r1="6.9779854"
     sodipodi:r2="3.4889927"
     sodipodi:arg1="0.98279372"
     sodipodi:arg2="1.6111123"
     inkscape:rounded="0"
     inkscape:randomized="0"
     d="m 26.772273,247.4016 -4.011314,-2.31988 -4.185135,1.98925 0.966771,-4.53186 -3.185168,-3.36559 4.608811,-0.48097 2.216592,-4.0693 1.881632,4.23461 4.555097,0.85062 -3.445899,3.09811 z"
     inkscape:transform-center-x="-0.057485389"
     inkscape:transform-center-y="-0.34387969"
     transform="matrix(0.66143766,0,0,0.58970801,32.713702,44.026387)" />
  <path
     sodipodi:type="star"
     style="fill:none;fill-opacity:0.7014;stroke:#ff0000;stroke-width:0.160117;stroke-dasharray:none;stroke-opacity:1"
     id="path1-43-3"
     inkscape:flatsided="false"
     sodipodi:sides="5"
     sodipodi:cx="22.901583"
     sodipodi:cy="241.59557"
     sodipodi:r1="6.9779854"
     sodipodi:r2="3.4889927"
     sodipodi:arg1="0.98279372"
     sodipodi:arg2="1.6111123"
     inkscape:rounded="0"
     inkscape:randomized="0"
     d="m 26.772273,247.4016 -4.011314,-2.31988 -4.185135,1.98925 0.966771,-4.53186 -3.185168,-3.36559 4.608811,-0.48097 2.216592,-4.0693 1.881632,4.23461 4.555097,0.85062 -3.445899,3.09811 z"
     inkscape:transform-center-x="-0.057485389"
     inkscape:transform-center-y="-0.34387969"
     transform="matrix(0.66143766,0,0,0.58970801,67.626672,84.843809)" />
  <path
     sodipodi:type="star"
     style="fill:none;fill-opacity:0.7014;stroke:#ff0000;stroke-width:0.160117;stroke-dasharray:none;stroke-opacity:1"
     id="path1-60-5-08"
     inkscape:flatsided="false"
     sodipodi:sides="5"
     sodipodi:cx="22.901583"
     sodipodi:cy="241.59557"
     sodipodi:r1="6.9779854"
     sodipodi:r2="3.4889927"
     sodipodi:arg1="0.98279372"
     sodipodi:arg2="1.6111123"
     inkscape:rounded="0"
     inkscape:randomized="0"
     d="m 26.772273,247.4016 -4.011314,-2.31988 -4.185135,1.98925 0.966771,-4.53186 -3.185168,-3.36559 4.608811,-0.48097 2.216592,-4.0693 1.881632,4.23461 4.555097,0.85062 -3.445899,3.09811 z"
     inkscape:transform-center-x="-0.057485389"
     inkscape:transform-center-y="-0.34387969"
     transform="matrix(0.66143766,0,0,0.58970801,87.513246,-17.738258)" />
  <path
     sodipodi:type="star"
     style="fill:none;fill-opacity:0.7014;stroke:#ff0000;stroke-width:0.160117;stroke-dasharray:none;stroke-opacity:1"
     id="path1-432-0"
     inkscape:flatsided="false"
     sodipodi:sides="5"
     sodipodi:cx="22.901583"
     sodipodi:cy="241.59557"
     sodipodi:r1="6.9779854"
     sodipodi:r2="3.4889927"
     sodipodi:arg1="0.98279372"
     sodipodi:arg2="1.6111123"
     inkscape:rounded="0"
     inkscape:randomized="0"
     d="m 26.772273,247.4016 -4.011314,-2.31988 -4.185135,1.98925 0.966771,-4.53186 -3.185168,-3.36559 4.608811,-0.48097 2.216592,-4.0693 1.881632,4.23461 4.555097,0.85062 -3.445899,3.09811 z"
     inkscape:transform-center-x="-0.057485389"
     inkscape:transform-center-y="-0.34387969"
     transform="matrix(0.66143766,0,0,0.58970801,31.587322,84.125397)" />
  <path
     sodipodi:type="star"
     style="fill:none;fill-opacity:0.7014;stroke:#ff0000;stroke-width:0.160117;stroke-dasharray:none;stroke-opacity:1"
     id="path1-334-0"
     inkscape:flatsided="false"
     sodipodi:sides="5"
     sodipodi:cx="22.901583"
     sodipodi:cy="241.59557"
     sodipodi:r1="6.9779854"
     sodipodi:r2="3.4889927"
     sodipodi:arg1="0.98279372"
     sodipodi:arg2="1.6111123"
     inkscape:rounded="0"
     inkscape:randomized="0"
     d="m 26.772273,247.4016 -4.011314,-2.31988 -4.185135,1.98925 0.966771,-4.53186 -3.185168,-3.36559 4.608811,-0.48097 2.216592,-4.0693 1.881632,4.23461 4.555097,0.85062 -3.445899,3.09811 z"
     inkscape:transform-center-x="-0.057485389"
     inkscape:transform-center-y="-0.34387969"
     transform="matrix(0.66143766,0,0,0.58970801,17.522672,57.473687)" />
  <path
     sodipodi:type="star"
     style="fill:none;fill-opacity:0.7014;stroke:#ff0000;stroke-width:0.160117;stroke-dasharray:none;stroke-opacity:1"
     id="path1-60-5"
     inkscape:flatsided="false"
     sodipodi:sides="5"
     sodipodi:cx="22.901583"
     sodipodi:cy="241.59557"
     sodipodi:r1="6.9779854"
     sodipodi:r2="3.4889927"
     sodipodi:arg1="0.98279372"
     sodipodi:arg2="1.6111123"
     inkscape:rounded="0"
     inkscape:randomized="0"
     d="m 26.772273,247.4016 -4.011314,-2.31988 -4.185135,1.98925 0.966771,-4.53186 -3.185168,-3.36559 4.608811,-0.48097 2.216592,-4.0693 1.881632,4.23461 4.555097,0.85062 -3.445899,3.09811 z"
     inkscape:transform-center-x="-0.057485389"
     inkscape:transform-center-y="-0.34387969"
     transform="matrix(0.66143766,0,0,0.58970801,79.020512,55.902547)" />
  <path
     sodipodi:type="star"
     style="fill:none;fill-opacity:0.7014;stroke:#ff0000;stroke-width:0.160117;stroke-dasharray:none;stroke-opacity:1"
     id="path1-60-5-9"
     inkscape:flatsided="false"
     sodipodi:sides="5"
     sodipodi:cx="22.901583"
     sodipodi:cy="241.59557"
     sodipodi:r1="6.9779854"
     sodipodi:r2="3.4889927"
     sodipodi:arg1="0.98279372"
     sodipodi:arg2="1.6111123"
     inkscape:rounded="0"
     inkscape:randomized="0"
     d="m 26.772273,247.4016 -4.011314,-2.31988 -4.185135,1.98925 0.966771,-4.53186 -3.185168,-3.36559 4.608811,-0.48097 2.216592,-4.0693 1.881632,4.23461 4.555097,0.85062 -3.445899,3.09811 z"
     inkscape:transform-center-x="-0.057485389"
     inkscape:transform-center-y="-0.34387969"
     transform="matrix(0.66143766,0,0,0.58970801,82.724827,80.233335)" />
  <path
     sodipodi:type="star"
     style="fill:none;fill-opacity:0.7014;stroke:#ff0000;stroke-width:0.160117;stroke-dasharray:none;stroke-opacity:1"
     id="path1-60-5-5"
     inkscape:flatsided="false"
     sodipodi:sides="5"
     sodipodi:cx="22.901583"
     sodipodi:cy="241.59557"
     sodipodi:r1="6.9779854"
     sodipodi:r2="3.4889927"
     sodipodi:arg1="0.98279372"
     sodipodi:arg2="1.6111123"
     inkscape:rounded="0"
     inkscape:randomized="0"
     d="m 26.772273,247.4016 -4.011314,-2.31988 -4.185135,1.98925 0.966771,-4.53186 -3.185168,-3.36559 4.608811,-0.48097 2.216592,-4.0693 1.881632,4.23461 4.555097,0.85062 -3.445899,3.09811 z"
     inkscape:transform-center-x="-0.057485389"
     inkscape:transform-center-y="-0.34387969"
     transform="matrix(0.66143766,0,0,0.58970801,79.515709,41.664044)" />
  <path
     sodipodi:type="star"
     style="fill:none;fill-opacity:0.7014;stroke:#ff0000;stroke-width:0.160117;stroke-dasharray:none;stroke-opacity:1"
     id="path1-60-5-0"
     inkscape:flatsided="false"
     sodipodi:sides="5"
     sodipodi:cx="22.901583"
     sodipodi:cy="241.59557"
     sodipodi:r1="6.9779854"
     sodipodi:r2="3.4889927"
     sodipodi:arg1="0.98279372"
     sodipodi:arg2="1.6111123"
     inkscape:rounded="0"
     inkscape:randomized="0"
     d="m 26.772273,247.4016 -4.011314,-2.31988 -4.185135,1.98925 0.966771,-4.53186 -3.185168,-3.36559 4.608811,-0.48097 2.216592,-4.0693 1.881632,4.23461 4.555097,0.85062 -3.445899,3.09811 z"
     inkscape:transform-center-x="-0.057485389"
     inkscape:transform-center-y="-0.34387969"
     transform="matrix(0.66143766,0,0,0.58970801,48.294875,-25.010956)" />
</svg>
