<?xml version="1.0" encoding="UTF-8" standalone="no"?>
<!-- Created with Inkscape (http://www.inkscape.org/) -->

<svg
   width="600mm"
   height="300mm"
   viewBox="0 0 600 300"
   version="1.1"
   id="svg1"
   inkscape:version="1.3 (0e150ed6c4, 2023-07-21)"
   sodipodi:docname="new_lamp_3.svg"
   xmlns:inkscape="http://www.inkscape.org/namespaces/inkscape"
   xmlns:sodipodi="http://sodipodi.sourceforge.net/DTD/sodipodi-0.dtd"
   xmlns="http://www.w3.org/2000/svg"
   xmlns:svg="http://www.w3.org/2000/svg">
  <sodipodi:namedview
     id="namedview1"
     pagecolor="#ffffff"
     bordercolor="#000000"
     borderopacity="0.25"
     inkscape:showpageshadow="2"
     inkscape:pageopacity="0.0"
     inkscape:pagecheckerboard="0"
     inkscape:deskcolor="#d1d1d1"
     inkscape:document-units="mm"
     inkscape:zoom="0.49575348"
     inkscape:cx="1161.8678"
     inkscape:cy="551.68549"
     inkscape:window-width="1920"
     inkscape:window-height="1001"
     inkscape:window-x="-9"
     inkscape:window-y="-9"
     inkscape:window-maximized="1"
     inkscape:current-layer="layer1" />
  <defs
     id="defs1" />
  <g
     inkscape:label="Capa 1"
     inkscape:groupmode="layer"
     id="layer1">
    <path
       d="m 35.601136,34.390368 v 10 h -6.229 v 6 h 6.229 v 6 h -6.229 v 6 h 6.229 v 6 h -6.229 v 6 h 6.229 v 6.000001 h -6.229 v 6 h 6.229 v 6 h -6.229 v 6 h 6.229 v 6.000001 h -6.229 v 6 h 6.229 v 6 h -6.229 v 6 h 6.229 v 6 h -6.229 v 6 h 6.229 v 6 h -6.229 v 6 h 6.229 v 6 h -6.229 v 6 h 6.229 v 6 h -6.229 v 6 h 6.229 v 6 h -6.229 v 6 h 6.229 v 6 h -6.229 v 6 h 6.229 v 6 h -6.229 v 6 h 6.229 v 6 h -6.229 v 6 h 6.229 v 6 4 h 2.608 v 3 h 6 v -3 h 6 v 3 h 6 v -3 h 6 v 3 h 6 v -3 h 6 v 3 h 6 v -3 h 6 v 3 h 6 v -3 h 6 v 3 h 6.000004 v -3 h 6 v 3 h 6 v -3 h 6 v 3 h 6 v -3 h 8.837 v -10 h -6.229 v -6 h 6.229 v -6 h -6.229 v -6 h 6.229 v -6 h -6.229 v -6 h 6.229 v -6 h -6.229 v -6 h 6.229 v -6 h -6.229 v -6 h 6.229 v -6 h -6.229 v -6 h 6.229 v -6 h -6.229 v -6 h 6.229 v -6 h -6.229 v -6 h 6.229 v -6 h -6.229 v -6 h 6.229 v -6 h -6.229 v -6 h 6.229 v -6.000001 h -6.229 v -6 h 6.229 v -6 h -6.229 v -6 h 6.229 v -6.000001 h -6.229 v -6 h 6.229 v -6 h -6.229 v -6 h 6.229 v -6 h -6.229 v -6 h 6.229 v -6 -4 h -8.837 v -3 h -6 v 3 h -6 v -3 h -6 v 3 h -6 v -3 h -6.000004 v 3 h -6 v -3 h -6 v 3 h -6 v -3 h -6 v 3 h -6 v -3 h -6 v 3 h -6 v -3 h -6 v 3 h -6 v -3 h -6 v 3 z"
       id="side6_outsideCutPath"
       stroke="#FF0000"
       stroke-width="0.1"
       style="font-size:12px;fill:none;fill-rule:evenodd;stroke:#ff0000;stroke-width:0.1;stroke-linecap:round"
       vector-effect="non-scaling-stroke" />
    <path
       sodipodi:type="star"
       style="fill:none;fill-opacity:0.7014;stroke:#ff0000;stroke-width:0.160117;stroke-dasharray:none;stroke-opacity:1"
       id="path1-33"
       inkscape:flatsided="false"
       sodipodi:sides="5"
       sodipodi:cx="22.901583"
       sodipodi:cy="241.59557"
       sodipodi:r1="6.9779854"
       sodipodi:r2="3.4889927"
       sodipodi:arg1="0.98279372"
       sodipodi:arg2="1.6111123"
       inkscape:rounded="0"
       inkscape:randomized="0"
       d="m 26.772273,247.4016 -4.011314,-2.31988 -4.185135,1.98925 0.966771,-4.53186 -3.185168,-3.36559 4.608811,-0.48097 2.216592,-4.0693 1.881632,4.23461 4.555097,0.85062 -3.445899,3.09811 z"
       inkscape:transform-center-x="-0.057485389"
       inkscape:transform-center-y="-0.34387969"
       transform="matrix(0.66143766,0,0,0.58970801,107.69278,-46.014747)" />
    <path
       sodipodi:type="star"
       style="fill:none;fill-opacity:0.7014;stroke:#ff0000;stroke-width:0.160117;stroke-dasharray:none;stroke-opacity:1"
       id="path1-42"
       inkscape:flatsided="false"
       sodipodi:sides="5"
       sodipodi:cx="22.901583"
       sodipodi:cy="241.59557"
       sodipodi:r1="6.9779854"
       sodipodi:r2="3.4889927"
       sodipodi:arg1="0.98279372"
       sodipodi:arg2="1.6111123"
       inkscape:rounded="0"
       inkscape:randomized="0"
       d="m 26.772273,247.4016 -4.011314,-2.31988 -4.185135,1.98925 0.966771,-4.53186 -3.185168,-3.36559 4.608811,-0.48097 2.216592,-4.0693 1.881632,4.23461 4.555097,0.85062 -3.445899,3.09811 z"
       inkscape:transform-center-x="-0.057485389"
       inkscape:transform-center-y="-0.34387969"
       transform="matrix(0.66143766,0,0,0.58970801,68.480898,-53.167757)" />
    <path
       sodipodi:type="star"
       style="fill:none;fill-opacity:0.7014;stroke:#ff0000;stroke-width:0.160117;stroke-dasharray:none;stroke-opacity:1"
       id="path1-86"
       inkscape:flatsided="false"
       sodipodi:sides="5"
       sodipodi:cx="22.901583"
       sodipodi:cy="241.59557"
       sodipodi:r1="6.9779854"
       sodipodi:r2="3.4889927"
       sodipodi:arg1="0.98279372"
       sodipodi:arg2="1.6111123"
       inkscape:rounded="0"
       inkscape:randomized="0"
       d="m 26.772273,247.4016 -4.011314,-2.31988 -4.185135,1.98925 0.966771,-4.53186 -3.185168,-3.36559 4.608811,-0.48097 2.216592,-4.0693 1.881632,4.23461 4.555097,0.85062 -3.445899,3.09811 z"
       inkscape:transform-center-x="-0.057485389"
       inkscape:transform-center-y="-0.34387969"
       transform="matrix(0.66143766,0,0,0.58970801,99.107198,-59.601017)" />
    <path
       sodipodi:type="star"
       style="fill:none;fill-opacity:0.7014;stroke:#ff0000;stroke-width:0.160117;stroke-dasharray:none;stroke-opacity:1"
       id="path1-79"
       inkscape:flatsided="false"
       sodipodi:sides="5"
       sodipodi:cx="22.901583"
       sodipodi:cy="241.59557"
       sodipodi:r1="6.9779854"
       sodipodi:r2="3.4889927"
       sodipodi:arg1="0.98279372"
       sodipodi:arg2="1.6111123"
       inkscape:rounded="0"
       inkscape:randomized="0"
       d="m 26.772273,247.4016 -4.011314,-2.31988 -4.185135,1.98925 0.966771,-4.53186 -3.185168,-3.36559 4.608811,-0.48097 2.216592,-4.0693 1.881632,4.23461 4.555097,0.85062 -3.445899,3.09811 z"
       inkscape:transform-center-x="-0.057485389"
       inkscape:transform-center-y="-0.34387969"
       transform="matrix(0.66143766,0,0,0.58970801,33.420838,-60.849287)" />
    <path
       sodipodi:type="star"
       style="fill:none;fill-opacity:0.7014;stroke:#ff0000;stroke-width:0.160117;stroke-dasharray:none;stroke-opacity:1"
       id="path1-18"
       inkscape:flatsided="false"
       sodipodi:sides="5"
       sodipodi:cx="22.901583"
       sodipodi:cy="241.59557"
       sodipodi:r1="6.9779854"
       sodipodi:r2="3.4889927"
       sodipodi:arg1="0.98279372"
       sodipodi:arg2="1.6111123"
       inkscape:rounded="0"
       inkscape:randomized="0"
       d="m 26.772273,247.4016 -4.011314,-2.31988 -4.185135,1.98925 0.966771,-4.53186 -3.185168,-3.36559 4.608811,-0.48097 2.216592,-4.0693 1.881632,4.23461 4.555097,0.85062 -3.445899,3.09811 z"
       inkscape:transform-center-x="-0.057485389"
       inkscape:transform-center-y="-0.34387969"
       transform="matrix(0.66143766,0,0,0.58970801,55.712428,-72.214667)" />
    <path
       sodipodi:type="star"
       style="fill:none;fill-opacity:0.7014;stroke:#ff0000;stroke-width:0.160117;stroke-dasharray:none;stroke-opacity:1"
       id="path1-96"
       inkscape:flatsided="false"
       sodipodi:sides="5"
       sodipodi:cx="22.901583"
       sodipodi:cy="241.59557"
       sodipodi:r1="6.9779854"
       sodipodi:r2="3.4889927"
       sodipodi:arg1="0.98279372"
       sodipodi:arg2="1.6111123"
       inkscape:rounded="0"
       inkscape:randomized="0"
       d="m 26.772273,247.4016 -4.011314,-2.31988 -4.185135,1.98925 0.966771,-4.53186 -3.185168,-3.36559 4.608811,-0.48097 2.216592,-4.0693 1.881632,4.23461 4.555097,0.85062 -3.445899,3.09811 z"
       inkscape:transform-center-x="-0.057485389"
       inkscape:transform-center-y="-0.34387969"
       transform="matrix(0.66143766,0,0,0.58970801,79.597698,-69.732267)" />
    <path
       sodipodi:type="star"
       style="fill:none;fill-opacity:0.7014;stroke:#ff0000;stroke-width:0.160117;stroke-dasharray:none;stroke-opacity:1"
       id="path1-14"
       inkscape:flatsided="false"
       sodipodi:sides="5"
       sodipodi:cx="22.901583"
       sodipodi:cy="241.59557"
       sodipodi:r1="6.9779854"
       sodipodi:r2="3.4889927"
       sodipodi:arg1="0.98279372"
       sodipodi:arg2="1.6111123"
       inkscape:rounded="0"
       inkscape:randomized="0"
       d="m 26.772273,247.4016 -4.011314,-2.31988 -4.185135,1.98925 0.966771,-4.53186 -3.185168,-3.36559 4.608811,-0.48097 2.216592,-4.0693 1.881632,4.23461 4.555097,0.85062 -3.445899,3.09811 z"
       inkscape:transform-center-x="-0.057485389"
       inkscape:transform-center-y="-0.34387969"
       transform="matrix(0.66143766,0,0,0.58970801,80.626838,-93.554485)" />
    <path
       sodipodi:type="star"
       style="fill:none;fill-opacity:0.7014;stroke:#ff0000;stroke-width:0.160117;stroke-dasharray:none;stroke-opacity:1"
       id="path1-74"
       inkscape:flatsided="false"
       sodipodi:sides="5"
       sodipodi:cx="22.901583"
       sodipodi:cy="241.59557"
       sodipodi:r1="6.9779854"
       sodipodi:r2="3.4889927"
       sodipodi:arg1="0.98279372"
       sodipodi:arg2="1.6111123"
       inkscape:rounded="0"
       inkscape:randomized="0"
       d="m 26.772273,247.4016 -4.011314,-2.31988 -4.185135,1.98925 0.966771,-4.53186 -3.185168,-3.36559 4.608811,-0.48097 2.216592,-4.0693 1.881632,4.23461 4.555097,0.85062 -3.445899,3.09811 z"
       inkscape:transform-center-x="-0.057485389"
       inkscape:transform-center-y="-0.34387969"
       transform="matrix(0.66143766,0,0,0.58970801,50.963088,-90.262592)" />
    <path
       sodipodi:type="star"
       style="fill:none;fill-opacity:0.7014;stroke:#ff0000;stroke-width:0.160117;stroke-dasharray:none;stroke-opacity:1"
       id="path1-43"
       inkscape:flatsided="false"
       sodipodi:sides="5"
       sodipodi:cx="22.901583"
       sodipodi:cy="241.59557"
       sodipodi:r1="6.9779854"
       sodipodi:r2="3.4889927"
       sodipodi:arg1="0.98279372"
       sodipodi:arg2="1.6111123"
       inkscape:rounded="0"
       inkscape:randomized="0"
       d="m 26.772273,247.4016 -4.011314,-2.31988 -4.185135,1.98925 0.966771,-4.53186 -3.185168,-3.36559 4.608811,-0.48097 2.216592,-4.0693 1.881632,4.23461 4.555097,0.85062 -3.445899,3.09811 z"
       inkscape:transform-center-x="-0.057485389"
       inkscape:transform-center-y="-0.34387969"
       transform="matrix(0.66143766,0,0,0.58970801,85.073778,-45.433777)" />
    <path
       sodipodi:type="star"
       style="fill:none;fill-opacity:0.7014;stroke:#ff0000;stroke-width:0.160117;stroke-dasharray:none;stroke-opacity:1"
       id="path1-432"
       inkscape:flatsided="false"
       sodipodi:sides="5"
       sodipodi:cx="22.901583"
       sodipodi:cy="241.59557"
       sodipodi:r1="6.9779854"
       sodipodi:r2="3.4889927"
       sodipodi:arg1="0.98279372"
       sodipodi:arg2="1.6111123"
       inkscape:rounded="0"
       inkscape:randomized="0"
       d="m 26.772273,247.4016 -4.011314,-2.31988 -4.185135,1.98925 0.966771,-4.53186 -3.185168,-3.36559 4.608811,-0.48097 2.216592,-4.0693 1.881632,4.23461 4.555097,0.85062 -3.445899,3.09811 z"
       inkscape:transform-center-x="-0.057485389"
       inkscape:transform-center-y="-0.34387969"
       transform="matrix(0.66143766,0,0,0.58970801,49.836708,-50.163587)" />
    <path
       sodipodi:type="star"
       style="fill:none;fill-opacity:0.7014;stroke:#ff0000;stroke-width:0.160117;stroke-dasharray:none;stroke-opacity:1"
       id="path1-334"
       inkscape:flatsided="false"
       sodipodi:sides="5"
       sodipodi:cx="22.901583"
       sodipodi:cy="241.59557"
       sodipodi:r1="6.9779854"
       sodipodi:r2="3.4889927"
       sodipodi:arg1="0.98279372"
       sodipodi:arg2="1.6111123"
       inkscape:rounded="0"
       inkscape:randomized="0"
       d="m 26.772273,247.4016 -4.011314,-2.31988 -4.185135,1.98925 0.966771,-4.53186 -3.185168,-3.36559 4.608811,-0.48097 2.216592,-4.0693 1.881632,4.23461 4.555097,0.85062 -3.445899,3.09811 z"
       inkscape:transform-center-x="-0.057485389"
       inkscape:transform-center-y="-0.34387969"
       transform="matrix(0.66143766,0,0,0.58970801,35.772058,-76.815299)" />
    <path
       sodipodi:type="star"
       style="fill:none;fill-opacity:0.7014;stroke:#ff0000;stroke-width:0.160117;stroke-dasharray:none;stroke-opacity:1"
       id="path1-60"
       inkscape:flatsided="false"
       sodipodi:sides="5"
       sodipodi:cx="22.901583"
       sodipodi:cy="241.59557"
       sodipodi:r1="6.9779854"
       sodipodi:r2="3.4889927"
       sodipodi:arg1="0.98279372"
       sodipodi:arg2="1.6111123"
       inkscape:rounded="0"
       inkscape:randomized="0"
       d="m 26.772273,247.4016 -4.011314,-2.31988 -4.185135,1.98925 0.966771,-4.53186 -3.185168,-3.36559 4.608811,-0.48097 2.216592,-4.0693 1.881632,4.23461 4.555097,0.85062 -3.445899,3.09811 z"
       inkscape:transform-center-x="-0.057485389"
       inkscape:transform-center-y="-0.34387969"
       transform="matrix(0.66143766,0,0,0.58970801,97.269908,-78.386437)" />
    <path
       sodipodi:type="star"
       style="fill:none;fill-opacity:0.7014;stroke:#ff0000;stroke-width:0.160117;stroke-dasharray:none;stroke-opacity:1"
       id="path1-33-1"
       inkscape:flatsided="false"
       sodipodi:sides="5"
       sodipodi:cx="22.901583"
       sodipodi:cy="241.59557"
       sodipodi:r1="6.9779854"
       sodipodi:r2="3.4889927"
       sodipodi:arg1="0.98279372"
       sodipodi:arg2="1.6111123"
       inkscape:rounded="0"
       inkscape:randomized="0"
       d="m 26.772273,247.4016 -4.011314,-2.31988 -4.185135,1.98925 0.966771,-4.53186 -3.185168,-3.36559 4.608811,-0.48097 2.216592,-4.0693 1.881632,4.23461 4.555097,0.85062 -3.445899,3.09811 z"
       inkscape:transform-center-x="-0.057485389"
       inkscape:transform-center-y="-0.34387969"
       transform="matrix(0.66143766,0,0,0.58970801,107.27528,18.149591)" />
    <path
       sodipodi:type="star"
       style="fill:none;fill-opacity:0.7014;stroke:#ff0000;stroke-width:0.160117;stroke-dasharray:none;stroke-opacity:1"
       id="path1-42-7"
       inkscape:flatsided="false"
       sodipodi:sides="5"
       sodipodi:cx="22.901583"
       sodipodi:cy="241.59557"
       sodipodi:r1="6.9779854"
       sodipodi:r2="3.4889927"
       sodipodi:arg1="0.98279372"
       sodipodi:arg2="1.6111123"
       inkscape:rounded="0"
       inkscape:randomized="0"
       d="m 26.772273,247.4016 -4.011314,-2.31988 -4.185135,1.98925 0.966771,-4.53186 -3.185168,-3.36559 4.608811,-0.48097 2.216592,-4.0693 1.881632,4.23461 4.555097,0.85062 -3.445899,3.09811 z"
       inkscape:transform-center-x="-0.057485389"
       inkscape:transform-center-y="-0.34387969"
       transform="matrix(0.66143766,0,0,0.58970801,68.063398,10.996581)" />
    <path
       sodipodi:type="star"
       style="fill:none;fill-opacity:0.7014;stroke:#ff0000;stroke-width:0.160117;stroke-dasharray:none;stroke-opacity:1"
       id="path1-86-5"
       inkscape:flatsided="false"
       sodipodi:sides="5"
       sodipodi:cx="22.901583"
       sodipodi:cy="241.59557"
       sodipodi:r1="6.9779854"
       sodipodi:r2="3.4889927"
       sodipodi:arg1="0.98279372"
       sodipodi:arg2="1.6111123"
       inkscape:rounded="0"
       inkscape:randomized="0"
       d="m 26.772273,247.4016 -4.011314,-2.31988 -4.185135,1.98925 0.966771,-4.53186 -3.185168,-3.36559 4.608811,-0.48097 2.216592,-4.0693 1.881632,4.23461 4.555097,0.85062 -3.445899,3.09811 z"
       inkscape:transform-center-x="-0.057485389"
       inkscape:transform-center-y="-0.34387969"
       transform="matrix(0.66143766,0,0,0.58970801,98.689688,4.5633212)" />
    <path
       sodipodi:type="star"
       style="fill:none;fill-opacity:0.7014;stroke:#ff0000;stroke-width:0.160117;stroke-dasharray:none;stroke-opacity:1"
       id="path1-79-5"
       inkscape:flatsided="false"
       sodipodi:sides="5"
       sodipodi:cx="22.901583"
       sodipodi:cy="241.59557"
       sodipodi:r1="6.9779854"
       sodipodi:r2="3.4889927"
       sodipodi:arg1="0.98279372"
       sodipodi:arg2="1.6111123"
       inkscape:rounded="0"
       inkscape:randomized="0"
       d="m 26.772273,247.4016 -4.011314,-2.31988 -4.185135,1.98925 0.966771,-4.53186 -3.185168,-3.36559 4.608811,-0.48097 2.216592,-4.0693 1.881632,4.23461 4.555097,0.85062 -3.445899,3.09811 z"
       inkscape:transform-center-x="-0.057485389"
       inkscape:transform-center-y="-0.34387969"
       transform="matrix(0.66143766,0,0,0.58970801,33.003338,3.3150512)" />
    <path
       sodipodi:type="star"
       style="fill:none;fill-opacity:0.7014;stroke:#ff0000;stroke-width:0.160117;stroke-dasharray:none;stroke-opacity:1"
       id="path1-18-9"
       inkscape:flatsided="false"
       sodipodi:sides="5"
       sodipodi:cx="22.901583"
       sodipodi:cy="241.59557"
       sodipodi:r1="6.9779854"
       sodipodi:r2="3.4889927"
       sodipodi:arg1="0.98279372"
       sodipodi:arg2="1.6111123"
       inkscape:rounded="0"
       inkscape:randomized="0"
       d="m 26.772273,247.4016 -4.011314,-2.31988 -4.185135,1.98925 0.966771,-4.53186 -3.185168,-3.36559 4.608811,-0.48097 2.216592,-4.0693 1.881632,4.23461 4.555097,0.85062 -3.445899,3.09811 z"
       inkscape:transform-center-x="-0.057485389"
       inkscape:transform-center-y="-0.34387969"
       transform="matrix(0.66143766,0,0,0.58970801,55.294928,-8.0503288)" />
    <path
       sodipodi:type="star"
       style="fill:none;fill-opacity:0.7014;stroke:#ff0000;stroke-width:0.160117;stroke-dasharray:none;stroke-opacity:1"
       id="path1-96-8"
       inkscape:flatsided="false"
       sodipodi:sides="5"
       sodipodi:cx="22.901583"
       sodipodi:cy="241.59557"
       sodipodi:r1="6.9779854"
       sodipodi:r2="3.4889927"
       sodipodi:arg1="0.98279372"
       sodipodi:arg2="1.6111123"
       inkscape:rounded="0"
       inkscape:randomized="0"
       d="m 26.772273,247.4016 -4.011314,-2.31988 -4.185135,1.98925 0.966771,-4.53186 -3.185168,-3.36559 4.608811,-0.48097 2.216592,-4.0693 1.881632,4.23461 4.555097,0.85062 -3.445899,3.09811 z"
       inkscape:transform-center-x="-0.057485389"
       inkscape:transform-center-y="-0.34387969"
       transform="matrix(0.66143766,0,0,0.58970801,79.180198,-5.5679288)" />
    <path
       sodipodi:type="star"
       style="fill:none;fill-opacity:0.7014;stroke:#ff0000;stroke-width:0.160117;stroke-dasharray:none;stroke-opacity:1"
       id="path1-14-5"
       inkscape:flatsided="false"
       sodipodi:sides="5"
       sodipodi:cx="22.901583"
       sodipodi:cy="241.59557"
       sodipodi:r1="6.9779854"
       sodipodi:r2="3.4889927"
       sodipodi:arg1="0.98279372"
       sodipodi:arg2="1.6111123"
       inkscape:rounded="0"
       inkscape:randomized="0"
       d="m 26.772273,247.4016 -4.011314,-2.31988 -4.185135,1.98925 0.966771,-4.53186 -3.185168,-3.36559 4.608811,-0.48097 2.216592,-4.0693 1.881632,4.23461 4.555097,0.85062 -3.445899,3.09811 z"
       inkscape:transform-center-x="-0.057485389"
       inkscape:transform-center-y="-0.34387969"
       transform="matrix(0.66143766,0,0,0.58970801,80.209338,-29.390147)" />
    <path
       sodipodi:type="star"
       style="fill:none;fill-opacity:0.7014;stroke:#ff0000;stroke-width:0.160117;stroke-dasharray:none;stroke-opacity:1"
       id="path1-74-2"
       inkscape:flatsided="false"
       sodipodi:sides="5"
       sodipodi:cx="22.901583"
       sodipodi:cy="241.59557"
       sodipodi:r1="6.9779854"
       sodipodi:r2="3.4889927"
       sodipodi:arg1="0.98279372"
       sodipodi:arg2="1.6111123"
       inkscape:rounded="0"
       inkscape:randomized="0"
       d="m 26.772273,247.4016 -4.011314,-2.31988 -4.185135,1.98925 0.966771,-4.53186 -3.185168,-3.36559 4.608811,-0.48097 2.216592,-4.0693 1.881632,4.23461 4.555097,0.85062 -3.445899,3.09811 z"
       inkscape:transform-center-x="-0.057485389"
       inkscape:transform-center-y="-0.34387969"
       transform="matrix(0.66143766,0,0,0.58970801,50.545588,-26.098254)" />
    <path
       sodipodi:type="star"
       style="fill:none;fill-opacity:0.7014;stroke:#ff0000;stroke-width:0.160117;stroke-dasharray:none;stroke-opacity:1"
       id="path1-43-0"
       inkscape:flatsided="false"
       sodipodi:sides="5"
       sodipodi:cx="22.901583"
       sodipodi:cy="241.59557"
       sodipodi:r1="6.9779854"
       sodipodi:r2="3.4889927"
       sodipodi:arg1="0.98279372"
       sodipodi:arg2="1.6111123"
       inkscape:rounded="0"
       inkscape:randomized="0"
       d="m 26.772273,247.4016 -4.011314,-2.31988 -4.185135,1.98925 0.966771,-4.53186 -3.185168,-3.36559 4.608811,-0.48097 2.216592,-4.0693 1.881632,4.23461 4.555097,0.85062 -3.445899,3.09811 z"
       inkscape:transform-center-x="-0.057485389"
       inkscape:transform-center-y="-0.34387969"
       transform="matrix(0.66143766,0,0,0.58970801,84.656278,18.730561)" />
    <path
       sodipodi:type="star"
       style="fill:none;fill-opacity:0.7014;stroke:#ff0000;stroke-width:0.160117;stroke-dasharray:none;stroke-opacity:1"
       id="path1-432-7"
       inkscape:flatsided="false"
       sodipodi:sides="5"
       sodipodi:cx="22.901583"
       sodipodi:cy="241.59557"
       sodipodi:r1="6.9779854"
       sodipodi:r2="3.4889927"
       sodipodi:arg1="0.98279372"
       sodipodi:arg2="1.6111123"
       inkscape:rounded="0"
       inkscape:randomized="0"
       d="m 26.772273,247.4016 -4.011314,-2.31988 -4.185135,1.98925 0.966771,-4.53186 -3.185168,-3.36559 4.608811,-0.48097 2.216592,-4.0693 1.881632,4.23461 4.555097,0.85062 -3.445899,3.09811 z"
       inkscape:transform-center-x="-0.057485389"
       inkscape:transform-center-y="-0.34387969"
       transform="matrix(0.66143766,0,0,0.58970801,49.419208,14.000751)" />
    <path
       sodipodi:type="star"
       style="fill:none;fill-opacity:0.7014;stroke:#ff0000;stroke-width:0.160117;stroke-dasharray:none;stroke-opacity:1"
       id="path1-334-2"
       inkscape:flatsided="false"
       sodipodi:sides="5"
       sodipodi:cx="22.901583"
       sodipodi:cy="241.59557"
       sodipodi:r1="6.9779854"
       sodipodi:r2="3.4889927"
       sodipodi:arg1="0.98279372"
       sodipodi:arg2="1.6111123"
       inkscape:rounded="0"
       inkscape:randomized="0"
       d="m 26.772273,247.4016 -4.011314,-2.31988 -4.185135,1.98925 0.966771,-4.53186 -3.185168,-3.36559 4.608811,-0.48097 2.216592,-4.0693 1.881632,4.23461 4.555097,0.85062 -3.445899,3.09811 z"
       inkscape:transform-center-x="-0.057485389"
       inkscape:transform-center-y="-0.34387969"
       transform="matrix(0.66143766,0,0,0.58970801,35.354558,-12.650961)" />
    <path
       sodipodi:type="star"
       style="fill:none;fill-opacity:0.7014;stroke:#ff0000;stroke-width:0.160117;stroke-dasharray:none;stroke-opacity:1"
       id="path1-60-8"
       inkscape:flatsided="false"
       sodipodi:sides="5"
       sodipodi:cx="22.901583"
       sodipodi:cy="241.59557"
       sodipodi:r1="6.9779854"
       sodipodi:r2="3.4889927"
       sodipodi:arg1="0.98279372"
       sodipodi:arg2="1.6111123"
       inkscape:rounded="0"
       inkscape:randomized="0"
       d="m 26.772273,247.4016 -4.011314,-2.31988 -4.185135,1.98925 0.966771,-4.53186 -3.185168,-3.36559 4.608811,-0.48097 2.216592,-4.0693 1.881632,4.23461 4.555097,0.85062 -3.445899,3.09811 z"
       inkscape:transform-center-x="-0.057485389"
       inkscape:transform-center-y="-0.34387969"
       transform="matrix(0.66143766,0,0,0.58970801,96.852398,-14.222099)" />
    <path
       sodipodi:type="star"
       style="fill:none;fill-opacity:0.7014;stroke:#ff0000;stroke-width:0.160117;stroke-dasharray:none;stroke-opacity:1"
       id="path1-33-3"
       inkscape:flatsided="false"
       sodipodi:sides="5"
       sodipodi:cx="22.901583"
       sodipodi:cy="241.59557"
       sodipodi:r1="6.9779854"
       sodipodi:r2="3.4889927"
       sodipodi:arg1="0.98279372"
       sodipodi:arg2="1.6111123"
       inkscape:rounded="0"
       inkscape:randomized="0"
       d="m 26.772273,247.4016 -4.011314,-2.31988 -4.185135,1.98925 0.966771,-4.53186 -3.185168,-3.36559 4.608811,-0.48097 2.216592,-4.0693 1.881632,4.23461 4.555097,0.85062 -3.445899,3.09811 z"
       inkscape:transform-center-x="-0.057485389"
       inkscape:transform-center-y="-0.34387969"
       transform="matrix(0.66143766,0,0,0.58970801,34.473048,25.422633)" />
    <path
       sodipodi:type="star"
       style="fill:none;fill-opacity:0.7014;stroke:#ff0000;stroke-width:0.160117;stroke-dasharray:none;stroke-opacity:1"
       id="path1-42-3"
       inkscape:flatsided="false"
       sodipodi:sides="5"
       sodipodi:cx="22.901583"
       sodipodi:cy="241.59557"
       sodipodi:r1="6.9779854"
       sodipodi:r2="3.4889927"
       sodipodi:arg1="0.98279372"
       sodipodi:arg2="1.6111123"
       inkscape:rounded="0"
       inkscape:randomized="0"
       d="m 26.772273,247.4016 -4.011314,-2.31988 -4.185135,1.98925 0.966771,-4.53186 -3.185168,-3.36559 4.608811,-0.48097 2.216592,-4.0693 1.881632,4.23461 4.555097,0.85062 -3.445899,3.09811 z"
       inkscape:transform-center-x="-0.057485389"
       inkscape:transform-center-y="-0.34387969"
       transform="matrix(0.66143766,0,0,0.58970801,66.664048,71.220077)" />
    <path
       sodipodi:type="star"
       style="fill:none;fill-opacity:0.7014;stroke:#ff0000;stroke-width:0.160117;stroke-dasharray:none;stroke-opacity:1"
       id="path1-86-4"
       inkscape:flatsided="false"
       sodipodi:sides="5"
       sodipodi:cx="22.901583"
       sodipodi:cy="241.59557"
       sodipodi:r1="6.9779854"
       sodipodi:r2="3.4889927"
       sodipodi:arg1="0.98279372"
       sodipodi:arg2="1.6111123"
       inkscape:rounded="0"
       inkscape:randomized="0"
       d="m 26.772273,247.4016 -4.011314,-2.31988 -4.185135,1.98925 0.966771,-4.53186 -3.185168,-3.36559 4.608811,-0.48097 2.216592,-4.0693 1.881632,4.23461 4.555097,0.85062 -3.445899,3.09811 z"
       inkscape:transform-center-x="-0.057485389"
       inkscape:transform-center-y="-0.34387969"
       transform="matrix(0.66143766,0,0,0.58970801,35.514818,-33.091289)" />
    <path
       sodipodi:type="star"
       style="fill:none;fill-opacity:0.7014;stroke:#ff0000;stroke-width:0.160117;stroke-dasharray:none;stroke-opacity:1"
       id="path1-79-9"
       inkscape:flatsided="false"
       sodipodi:sides="5"
       sodipodi:cx="22.901583"
       sodipodi:cy="241.59557"
       sodipodi:r1="6.9779854"
       sodipodi:r2="3.4889927"
       sodipodi:arg1="0.98279372"
       sodipodi:arg2="1.6111123"
       inkscape:rounded="0"
       inkscape:randomized="0"
       d="m 26.772273,247.4016 -4.011314,-2.31988 -4.185135,1.98925 0.966771,-4.53186 -3.185168,-3.36559 4.608811,-0.48097 2.216592,-4.0693 1.881632,4.23461 4.555097,0.85062 -3.445899,3.09811 z"
       inkscape:transform-center-x="-0.057485389"
       inkscape:transform-center-y="-0.34387969"
       transform="matrix(0.66143766,0,0,0.58970801,31.603988,63.538542)" />
    <path
       sodipodi:type="star"
       style="fill:none;fill-opacity:0.7014;stroke:#ff0000;stroke-width:0.160117;stroke-dasharray:none;stroke-opacity:1"
       id="path1-18-0"
       inkscape:flatsided="false"
       sodipodi:sides="5"
       sodipodi:cx="22.901583"
       sodipodi:cy="241.59557"
       sodipodi:r1="6.9779854"
       sodipodi:r2="3.4889927"
       sodipodi:arg1="0.98279372"
       sodipodi:arg2="1.6111123"
       inkscape:rounded="0"
       inkscape:randomized="0"
       d="m 26.772273,247.4016 -4.011314,-2.31988 -4.185135,1.98925 0.966771,-4.53186 -3.185168,-3.36559 4.608811,-0.48097 2.216592,-4.0693 1.881632,4.23461 4.555097,0.85062 -3.445899,3.09811 z"
       inkscape:transform-center-x="-0.057485389"
       inkscape:transform-center-y="-0.34387969"
       transform="matrix(0.66143766,0,0,0.58970801,53.895578,52.173162)" />
    <path
       sodipodi:type="star"
       style="fill:none;fill-opacity:0.7014;stroke:#ff0000;stroke-width:0.160117;stroke-dasharray:none;stroke-opacity:1"
       id="path1-96-7"
       inkscape:flatsided="false"
       sodipodi:sides="5"
       sodipodi:cx="22.901583"
       sodipodi:cy="241.59557"
       sodipodi:r1="6.9779854"
       sodipodi:r2="3.4889927"
       sodipodi:arg1="0.98279372"
       sodipodi:arg2="1.6111123"
       inkscape:rounded="0"
       inkscape:randomized="0"
       d="m 26.772273,247.4016 -4.011314,-2.31988 -4.185135,1.98925 0.966771,-4.53186 -3.185168,-3.36559 4.608811,-0.48097 2.216592,-4.0693 1.881632,4.23461 4.555097,0.85062 -3.445899,3.09811 z"
       inkscape:transform-center-x="-0.057485389"
       inkscape:transform-center-y="-0.34387969"
       transform="matrix(0.66143766,0,0,0.58970801,77.780848,54.655562)" />
    <path
       sodipodi:type="star"
       style="fill:none;fill-opacity:0.7014;stroke:#ff0000;stroke-width:0.160117;stroke-dasharray:none;stroke-opacity:1"
       id="path1-14-7"
       inkscape:flatsided="false"
       sodipodi:sides="5"
       sodipodi:cx="22.901583"
       sodipodi:cy="241.59557"
       sodipodi:r1="6.9779854"
       sodipodi:r2="3.4889927"
       sodipodi:arg1="0.98279372"
       sodipodi:arg2="1.6111123"
       inkscape:rounded="0"
       inkscape:randomized="0"
       d="m 26.772273,247.4016 -4.011314,-2.31988 -4.185135,1.98925 0.966771,-4.53186 -3.185168,-3.36559 4.608811,-0.48097 2.216592,-4.0693 1.881632,4.23461 4.555097,0.85062 -3.445899,3.09811 z"
       inkscape:transform-center-x="-0.057485389"
       inkscape:transform-center-y="-0.34387969"
       transform="matrix(0.66143766,0,0,0.58970801,69.984918,35.647019)" />
    <path
       sodipodi:type="star"
       style="fill:none;fill-opacity:0.7014;stroke:#ff0000;stroke-width:0.160117;stroke-dasharray:none;stroke-opacity:1"
       id="path1-74-0"
       inkscape:flatsided="false"
       sodipodi:sides="5"
       sodipodi:cx="22.901583"
       sodipodi:cy="241.59557"
       sodipodi:r1="6.9779854"
       sodipodi:r2="3.4889927"
       sodipodi:arg1="0.98279372"
       sodipodi:arg2="1.6111123"
       inkscape:rounded="0"
       inkscape:randomized="0"
       d="m 26.772273,247.4016 -4.011314,-2.31988 -4.185135,1.98925 0.966771,-4.53186 -3.185168,-3.36559 4.608811,-0.48097 2.216592,-4.0693 1.881632,4.23461 4.555097,0.85062 -3.445899,3.09811 z"
       inkscape:transform-center-x="-0.057485389"
       inkscape:transform-center-y="-0.34387969"
       transform="matrix(0.66143766,0,0,0.58970801,49.146238,34.125232)" />
    <path
       sodipodi:type="star"
       style="fill:none;fill-opacity:0.7014;stroke:#ff0000;stroke-width:0.160117;stroke-dasharray:none;stroke-opacity:1"
       id="path1-43-3"
       inkscape:flatsided="false"
       sodipodi:sides="5"
       sodipodi:cx="22.901583"
       sodipodi:cy="241.59557"
       sodipodi:r1="6.9779854"
       sodipodi:r2="3.4889927"
       sodipodi:arg1="0.98279372"
       sodipodi:arg2="1.6111123"
       inkscape:rounded="0"
       inkscape:randomized="0"
       d="m 26.772273,247.4016 -4.011314,-2.31988 -4.185135,1.98925 0.966771,-4.53186 -3.185168,-3.36559 4.608811,-0.48097 2.216592,-4.0693 1.881632,4.23461 4.555097,0.85062 -3.445899,3.09811 z"
       inkscape:transform-center-x="-0.057485389"
       inkscape:transform-center-y="-0.34387969"
       transform="matrix(0.66143766,0,0,0.58970801,84.059208,74.942657)" />
    <path
       sodipodi:type="star"
       style="fill:none;fill-opacity:0.7014;stroke:#ff0000;stroke-width:0.160117;stroke-dasharray:none;stroke-opacity:1"
       id="path1-60-5-08"
       inkscape:flatsided="false"
       sodipodi:sides="5"
       sodipodi:cx="22.901583"
       sodipodi:cy="241.59557"
       sodipodi:r1="6.9779854"
       sodipodi:r2="3.4889927"
       sodipodi:arg1="0.98279372"
       sodipodi:arg2="1.6111123"
       inkscape:rounded="0"
       inkscape:randomized="0"
       d="m 26.772273,247.4016 -4.011314,-2.31988 -4.185135,1.98925 0.966771,-4.53186 -3.185168,-3.36559 4.608811,-0.48097 2.216592,-4.0693 1.881632,4.23461 4.555097,0.85062 -3.445899,3.09811 z"
       inkscape:transform-center-x="-0.057485389"
       inkscape:transform-center-y="-0.34387969"
       transform="matrix(0.66143766,0,0,0.58970801,103.94579,-27.639413)" />
    <path
       sodipodi:type="star"
       style="fill:none;fill-opacity:0.7014;stroke:#ff0000;stroke-width:0.160117;stroke-dasharray:none;stroke-opacity:1"
       id="path1-432-0"
       inkscape:flatsided="false"
       sodipodi:sides="5"
       sodipodi:cx="22.901583"
       sodipodi:cy="241.59557"
       sodipodi:r1="6.9779854"
       sodipodi:r2="3.4889927"
       sodipodi:arg1="0.98279372"
       sodipodi:arg2="1.6111123"
       inkscape:rounded="0"
       inkscape:randomized="0"
       d="m 26.772273,247.4016 -4.011314,-2.31988 -4.185135,1.98925 0.966771,-4.53186 -3.185168,-3.36559 4.608811,-0.48097 2.216592,-4.0693 1.881632,4.23461 4.555097,0.85062 -3.445899,3.09811 z"
       inkscape:transform-center-x="-0.057485389"
       inkscape:transform-center-y="-0.34387969"
       transform="matrix(0.66143766,0,0,0.58970801,48.019858,74.224247)" />
    <path
       sodipodi:type="star"
       style="fill:none;fill-opacity:0.7014;stroke:#ff0000;stroke-width:0.160117;stroke-dasharray:none;stroke-opacity:1"
       id="path1-334-0"
       inkscape:flatsided="false"
       sodipodi:sides="5"
       sodipodi:cx="22.901583"
       sodipodi:cy="241.59557"
       sodipodi:r1="6.9779854"
       sodipodi:r2="3.4889927"
       sodipodi:arg1="0.98279372"
       sodipodi:arg2="1.6111123"
       inkscape:rounded="0"
       inkscape:randomized="0"
       d="m 26.772273,247.4016 -4.011314,-2.31988 -4.185135,1.98925 0.966771,-4.53186 -3.185168,-3.36559 4.608811,-0.48097 2.216592,-4.0693 1.881632,4.23461 4.555097,0.85062 -3.445899,3.09811 z"
       inkscape:transform-center-x="-0.057485389"
       inkscape:transform-center-y="-0.34387969"
       transform="matrix(0.66143766,0,0,0.58970801,33.955208,47.572532)" />
    <path
       sodipodi:type="star"
       style="fill:none;fill-opacity:0.7014;stroke:#ff0000;stroke-width:0.160117;stroke-dasharray:none;stroke-opacity:1"
       id="path1-60-5"
       inkscape:flatsided="false"
       sodipodi:sides="5"
       sodipodi:cx="22.901583"
       sodipodi:cy="241.59557"
       sodipodi:r1="6.9779854"
       sodipodi:r2="3.4889927"
       sodipodi:arg1="0.98279372"
       sodipodi:arg2="1.6111123"
       inkscape:rounded="0"
       inkscape:randomized="0"
       d="m 26.772273,247.4016 -4.011314,-2.31988 -4.185135,1.98925 0.966771,-4.53186 -3.185168,-3.36559 4.608811,-0.48097 2.216592,-4.0693 1.881632,4.23461 4.555097,0.85062 -3.445899,3.09811 z"
       inkscape:transform-center-x="-0.057485389"
       inkscape:transform-center-y="-0.34387969"
       transform="matrix(0.66143766,0,0,0.58970801,95.453048,46.001392)" />
    <path
       sodipodi:type="star"
       style="fill:none;fill-opacity:0.7014;stroke:#ff0000;stroke-width:0.160117;stroke-dasharray:none;stroke-opacity:1"
       id="path1-60-5-9"
       inkscape:flatsided="false"
       sodipodi:sides="5"
       sodipodi:cx="22.901583"
       sodipodi:cy="241.59557"
       sodipodi:r1="6.9779854"
       sodipodi:r2="3.4889927"
       sodipodi:arg1="0.98279372"
       sodipodi:arg2="1.6111123"
       inkscape:rounded="0"
       inkscape:randomized="0"
       d="m 26.772273,247.4016 -4.011314,-2.31988 -4.185135,1.98925 0.966771,-4.53186 -3.185168,-3.36559 4.608811,-0.48097 2.216592,-4.0693 1.881632,4.23461 4.555097,0.85062 -3.445899,3.09811 z"
       inkscape:transform-center-x="-0.057485389"
       inkscape:transform-center-y="-0.34387969"
       transform="matrix(0.66143766,0,0,0.58970801,99.157368,70.332177)" />
    <path
       sodipodi:type="star"
       style="fill:none;fill-opacity:0.7014;stroke:#ff0000;stroke-width:0.160117;stroke-dasharray:none;stroke-opacity:1"
       id="path1-60-5-5"
       inkscape:flatsided="false"
       sodipodi:sides="5"
       sodipodi:cx="22.901583"
       sodipodi:cy="241.59557"
       sodipodi:r1="6.9779854"
       sodipodi:r2="3.4889927"
       sodipodi:arg1="0.98279372"
       sodipodi:arg2="1.6111123"
       inkscape:rounded="0"
       inkscape:randomized="0"
       d="m 26.772273,247.4016 -4.011314,-2.31988 -4.185135,1.98925 0.966771,-4.53186 -3.185168,-3.36559 4.608811,-0.48097 2.216592,-4.0693 1.881632,4.23461 4.555097,0.85062 -3.445899,3.09811 z"
       inkscape:transform-center-x="-0.057485389"
       inkscape:transform-center-y="-0.34387969"
       transform="matrix(0.66143766,0,0,0.58970801,95.948248,31.762889)" />
    <path
       sodipodi:type="star"
       style="fill:none;fill-opacity:0.7014;stroke:#ff0000;stroke-width:0.160117;stroke-dasharray:none;stroke-opacity:1"
       id="path1-60-5-0"
       inkscape:flatsided="false"
       sodipodi:sides="5"
       sodipodi:cx="22.901583"
       sodipodi:cy="241.59557"
       sodipodi:r1="6.9779854"
       sodipodi:r2="3.4889927"
       sodipodi:arg1="0.98279372"
       sodipodi:arg2="1.6111123"
       inkscape:rounded="0"
       inkscape:randomized="0"
       d="m 26.772273,247.4016 -4.011314,-2.31988 -4.185135,1.98925 0.966771,-4.53186 -3.185168,-3.36559 4.608811,-0.48097 2.216592,-4.0693 1.881632,4.23461 4.555097,0.85062 -3.445899,3.09811 z"
       inkscape:transform-center-x="-0.057485389"
       inkscape:transform-center-y="-0.34387969"
       transform="matrix(0.66143766,0,0,0.58970801,64.727408,-34.912111)" />
    <path
       sodipodi:type="star"
       style="fill:none;fill-opacity:0.7014;stroke:#ff0000;stroke-width:0.0641426;stroke-dasharray:none"
       id="path1-8"
       inkscape:flatsided="true"
       sodipodi:sides="7"
       sodipodi:cx="188.92958"
       sodipodi:cy="49.634045"
       sodipodi:r1="70.571533"
       sodipodi:r2="63.582748"
       sodipodi:arg1="0.78005062"
       sodipodi:arg2="1.2288496"
       inkscape:rounded="0"
       inkscape:randomized="0"
       d="M 239.09733,99.268091 181.4032,119.80309 129.37659,87.499366 122.1946,26.682283 l 43.07081,-43.533938 60.89041,6.531149 32.8583,51.678149 z"
       inkscape:transform-center-x="-5.218824"
       inkscape:transform-center-y="-0.25275275"
       transform="matrix(1.5518182,0.1981603,-0.19957952,1.5407832,-26.961068,21.970136)" />
    <path
       sodipodi:type="star"
       style="fill:none;fill-opacity:0.7014;stroke:#ff0000;stroke-width:0.0641426;stroke-dasharray:none"
       id="path1-8-8"
       inkscape:flatsided="true"
       sodipodi:sides="7"
       sodipodi:cx="188.92958"
       sodipodi:cy="49.634045"
       sodipodi:r1="70.571533"
       sodipodi:r2="63.582748"
       sodipodi:arg1="0.78005062"
       sodipodi:arg2="1.2288496"
       inkscape:rounded="0"
       inkscape:randomized="0"
       d="M 239.09733,99.268091 181.4032,119.80309 129.37659,87.499366 122.1946,26.682283 l 43.07081,-43.533938 60.89041,6.531149 32.8583,51.678149 z"
       inkscape:transform-center-x="-5.218824"
       inkscape:transform-center-y="-0.25275275"
       transform="matrix(1.5518182,0.1981603,-0.19957952,1.5407832,195.67991,25.639725)" />
    <circle
       style="fill:none;fill-opacity:0.7014;stroke:#ff0000;stroke-width:0.1;stroke-dasharray:none"
       id="path1"
       cx="254.84145"
       cy="136.36018"
       r="13.609334" />
    <circle
       style="fill:none;fill-opacity:0.7014;stroke:#ff0000;stroke-width:0.1;stroke-dasharray:none"
       id="path1-5"
       cx="477.73575"
       cy="140.35849"
       r="13.609334" />
  </g>
</svg>
